<svg data-v-fde0c5aa="" xmlns="http://www.w3.org/2000/svg" viewBox="0 0 300 300" class="iconLeft"><!----><defs data-v-fde0c5aa=""><linearGradient data-v-fde0c5aa="" gradientTransform="rotate(25)" id="b3534fcc-8a00-4ea2-96fe-4c827e05da51" x1="0%" y1="0%" x2="100%" y2="0%"><stop data-v-fde0c5aa="" offset="0%" stop-color="#E0302F" stop-opacity="1"></stop><stop data-v-fde0c5aa="" offset="100%" stop-color="#3281DD" stop-opacity="1"></stop></linearGradient></defs><rect data-v-fde0c5aa="" fill="url(#b3534fcc-8a00-4ea2-96fe-4c827e05da51)" x="0" y="0" width="300px" height="300px" class="logo-background-square"></rect><defs data-v-fde0c5aa=""><!----></defs><g data-v-fde0c5aa="" id="70e1bc71-e78a-4e36-a77b-e24b0123d368" fill="#ffffff" transform="matrix(4.490070253810831,0,0,4.490070253810831,129.51856403376198,107.11982821969362)"><path d="M7.15 4.58L1.81 4.58L1.81 6.30L5.03 6.30L5.03 11.41C5.03 12.36 4.61 12.81 3.89 12.81C3.05 12.81 2.67 12.22 2.52 11.40L0.53 11.80C0.84 13.43 1.89 14.52 3.89 14.52C5.88 14.52 7.18 13.38 7.15 11.62ZM10.51 14.35L12.95 14.35L14.18 9.06L14.67 6.92L14.71 6.92L15.19 9.06L16.42 14.35L18.84 14.35L21.11 4.58L19.10 4.58L18.16 9.27L17.64 11.98L17.60 11.98L17.00 9.27L15.90 4.58L13.58 4.58L12.50 9.27L11.89 11.98L11.84 11.98L11.33 9.27L10.40 4.58L8.30 4.58ZM26.25 6.30L29.06 6.30L29.06 4.58L21.34 4.58L21.34 6.30L24.15 6.30L24.15 14.35L26.25 14.35Z"></path></g><defs data-v-fde0c5aa=""><!----></defs><g data-v-fde0c5aa="" id="03089acc-04ec-4314-89e7-b5b636e2b740" stroke="none" fill="#ffffff" transform="matrix(0.8945462531694013,0,0,0.8945462531694013,34.94685650610628,98.14807161975928)"><path d="M17.961 31.643L8.251 57.29c-3.785-5.55-2.469-13.798-1.976-15.748l11.686-9.899zm6.748 33.895c-1.811-.449-3.292-1.05-4.772-1.499-4.115-1.65-7.077-3.3-8.724-4.05L34.09 44.542l12.509 24.896c-6.255-.3-12.509-1.199-18.927-2.999l-2.963-.901zM12.53 55.34l8.064-21.297c1.975 2.85 6.418 5.249 12.837 7.199L12.53 55.34zm14.319 13.948a85.796 85.796 0 0 0 23.535 3.3c9.71 0 18.927-1.8 27.32-5.1L51.536 95.384 18.784 66.738c1.481.6 3.127 1.2 4.772 1.649l3.293.901zm19.914-28.496c-7.241-.9-20.243-3.6-23.699-8.699-.658-1.05-.987-2.1-.658-3.3.987-1.799 3.456-3.449 6.912-4.949 5.431-2.1 12.508-3.299 20.079-3.299 7.57 0 14.812 1.2 20.078 3.299 3.292 1.35 5.597 2.85 6.748 4.5.494.9.987 2.7.165 4.5-1.152 1.799-3.456 3.299-6.913 4.649-5.266 2.1-12.508 3.3-20.078 3.3h-2.634zm1.81 49.043l2.304-2.1-14.318-12.898-2.304 2.1 14.318 12.898zM37.217 42.142c6.419 1.5 12.015 1.95 12.344 1.95h.165c3.785-.15 7.241-.45 10.368-.75L49.231 67.488 36.395 41.842l.822.3zm25.511 3.15L80.997 62.54c-8.394 3.899-17.117 6.299-26.169 6.898-.987 0-1.975.15-2.962.15l10.862-24.296zm4.279 28.646L52.853 86.686l2.304 2.1 14.154-12.748-2.304-2.1zm-2.469-31.346c6.254-1.2 10.697-3.3 13.166-5.999l3.292 21.597-16.458-15.598zm22.054-7.349l-6.748-2.7c.164-.6.164-1.35.164-1.95l6.584 4.65zm6.089 4.949c2.14 5.399 1.317 10.349-2.304 15.148-1.975 2.399-4.114 4.05-5.596 5.1l-3.785-24.147 11.355 4.5.33-.601z"></path></g><!----></svg>