<svg data-v-423bf9ae="" xmlns="http://www.w3.org/2000/svg" viewBox="0 0 70.71118239042183 60" class="icon"><!----><!----><!----><!----><g data-v-423bf9ae="" id="268018bc-a390-47cd-981e-fa27fc5426a6" transform="matrix(0.801720979421769,0,0,0.801720979421769,-4.528789285175172,-16.4713575833867)" stroke="none" fill="white"><path d="M17.961 31.643L8.251 57.29c-3.785-5.55-2.469-13.798-1.976-15.748l11.686-9.899zm6.748 33.895c-1.811-.449-3.292-1.05-4.772-1.499-4.115-1.65-7.077-3.3-8.724-4.05L34.09 44.542l12.509 24.896c-6.255-.3-12.509-1.199-18.927-2.999l-2.963-.901zM12.53 55.34l8.064-21.297c1.975 2.85 6.418 5.249 12.837 7.199L12.53 55.34zm14.319 13.948a85.796 85.796 0 0 0 23.535 3.3c9.71 0 18.927-1.8 27.32-5.1L51.536 95.384 18.784 66.738c1.481.6 3.127 1.2 4.772 1.649l3.293.901zm19.914-28.496c-7.241-.9-20.243-3.6-23.699-8.699-.658-1.05-.987-2.1-.658-3.3.987-1.799 3.456-3.449 6.912-4.949 5.431-2.1 12.508-3.299 20.079-3.299 7.57 0 14.812 1.2 20.078 3.299 3.292 1.35 5.597 2.85 6.748 4.5.494.9.987 2.7.165 4.5-1.152 1.799-3.456 3.299-6.913 4.649-5.266 2.1-12.508 3.3-20.078 3.3h-2.634zm1.81 49.043l2.304-2.1-14.318-12.898-2.304 2.1 14.318 12.898zM37.217 42.142c6.419 1.5 12.015 1.95 12.344 1.95h.165c3.785-.15 7.241-.45 10.368-.75L49.231 67.488 36.395 41.842l.822.3zm25.511 3.15L80.997 62.54c-8.394 3.899-17.117 6.299-26.169 6.898-.987 0-1.975.15-2.962.15l10.862-24.296zm4.279 28.646L52.853 86.686l2.304 2.1 14.154-12.748-2.304-2.1zm-2.469-31.346c6.254-1.2 10.697-3.3 13.166-5.999l3.292 21.597-16.458-15.598zm22.054-7.349l-6.748-2.7c.164-.6.164-1.35.164-1.95l6.584 4.65zm6.089 4.949c2.14 5.399 1.317 10.349-2.304 15.148-1.975 2.399-4.114 4.05-5.596 5.1l-3.785-24.147 11.355 4.5.33-.601z"></path></g><!----></svg>