<svg data-v-fde0c5aa="" xmlns="http://www.w3.org/2000/svg" viewBox="0 0 300 300" class="iconLeft"><!----><defs data-v-fde0c5aa=""><!----></defs><rect data-v-fde0c5aa="" fill="#FDEDDF" x="0" y="0" width="300px" height="300px" class="logo-background-square"></rect><defs data-v-fde0c5aa=""><!----></defs><g data-v-fde0c5aa="" id="3e24dc49-8e29-4e9f-805b-7ac3671f872e" fill="#361A02" transform="matrix(5.492173435489083,0,0,5.492173435489083,107.20773211774535,120.56195161664854)"><path d="M0.63 1.86L0.63 8.86L2.59 8.86L2.59 6.20L5.25 6.20L5.25 8.86L7.21 8.86L7.21 1.86L5.25 1.86L5.25 4.52L2.59 4.52L2.59 1.86L0.63 1.86ZM8.12 1.86L8.12 3.54L10.22 3.54L10.22 8.86L12.18 8.86L12.18 3.54L14.28 3.54L14.28 1.86L8.12 1.86ZM14.84 1.86L14.84 3.54L16.94 3.54L16.94 8.86L18.90 8.86L18.90 3.54L21 3.54L21 1.86L14.84 1.86ZM21.91 1.86L21.91 8.86L23.87 8.86L23.87 6.97L24.99 6.97L24.99 6.97Q25.82 6.97 26.45 6.67L26.45 6.67L26.45 6.67Q27.09 6.37 27.45 5.80L27.45 5.80L27.45 5.80Q27.82 5.24 27.82 4.41L27.82 4.41L27.82 4.41Q27.82 3.67 27.45 3.09L27.45 3.09L27.45 3.09Q27.09 2.51 26.45 2.18L26.45 2.18L26.45 2.18Q25.82 1.86 24.99 1.86L24.99 1.86L24.99 1.86Q24.22 1.86 23.45 1.86L23.45 1.86L23.45 1.86Q22.68 1.86 21.91 1.86L21.91 1.86ZM23.87 3.47L24.85 3.47L24.85 3.47Q25.26 3.47 25.52 3.69L25.52 3.69L25.52 3.69Q25.79 3.91 25.79 4.41L25.79 4.41L25.79 4.41Q25.79 4.91 25.52 5.14L25.52 5.14L25.52 5.14Q25.26 5.36 24.85 5.36L24.85 5.36L23.87 5.36L23.87 3.47Z"></path></g><defs data-v-fde0c5aa=""><linearGradient data-v-fde0c5aa="" gradientTransform="rotate(25)" id="7bea5107-6527-4ee8-945a-d16b9a175179" x1="0%" y1="0%" x2="100%" y2="0%"><stop data-v-fde0c5aa="" offset="0%" stop-color="#E63500" stop-opacity="1"></stop><stop data-v-fde0c5aa="" offset="100%" stop-color="#FFC316" stop-opacity="1"></stop></linearGradient></defs><g data-v-fde0c5aa="" id="6e248916-4bbe-41a7-8759-9788355f5ec7" stroke="none" fill="url(#7bea5107-6527-4ee8-945a-d16b9a175179)" transform="matrix(0.6898062489052099,0,0,0.6898062489052099,175.75387188966693,-27.280190180226896)"><switch><g><path d="M-155 298.8c11.2 0 21.7-4.3 29.6-12.2 7.9-7.9 12.2-18.4 12.2-29.6 0-11.2-4.3-21.7-12.2-29.6-7.9-7.9-18.4-12.2-29.6-12.2s-21.7 4.3-29.6 12.2c-7.9 7.9-12.2 18.4-12.2 29.6 0 11.2 4.3 21.7 12.2 29.6 7.9 7.9 18.4 12.2 29.6 12.2zm2.4-7.1c-.8.1-1.6.1-2.4.1-1.1 0-2.2-.1-3.3-.2-3.6-5.6-6.3-11.6-7.9-17.9h17.7c.6 1.5 1.7 2.9 3 3.8-1.7 5-4.1 9.7-7.1 14.2zm9.5-2c1.9-3.5 3.4-7 4.6-10.7 2.9-.6 5.2-2.6 6.3-5.3h7.7c-4 7.3-10.7 13-18.6 16zm22.8-32.7c0 3.3-.5 6.5-1.3 9.6h-10.8c-.6-1.3-1.6-2.5-2.8-3.4.2-2.2.3-4.4.3-6.6 0-3.1-.2-6.2-.6-9.2h13.8c1 3 1.4 6.3 1.4 9.6zm-4.2-16.7h-12.2c-1.3-5.5-3.2-10.7-5.8-15.7 7.6 2.9 14 8.6 18 15.7zm-17.4 16.3c0 1.7-.1 3.4-.2 5.1-2.8.6-5.1 2.4-6.2 4.9h-19.3c-.4-3-.7-6.1-.7-9.1 0-1.9.1-3.8.3-5.7 2.6-.5 4.7-2.2 6-4.4h19.5c.4 3 .6 6.1.6 9.2zm-15.7-34.2c.9-.1 1.8-.1 2.6-.1 1 0 2 0 3 .1 3.6 5.6 6.3 11.6 7.9 17.9h-17.4c-.6-1.7-1.7-3.2-3.1-4.3 1.8-4.8 4.1-9.3 7-13.6zm-9.5 2c-1.7 3.2-3.2 6.6-4.4 10-3.1.6-5.6 2.9-6.6 5.8h-7.3c3.9-7.1 10.4-12.8 18.3-15.8zm-22.6 32.6c0-3.3.5-6.6 1.4-9.6h10.9c.6 1.1 1.5 2.1 2.5 2.9-.2 2.4-.4 4.8-.4 7.2 0 3.1.2 6.1.6 9.1h-13.6c-1-3.1-1.4-6.3-1.4-9.6zm16.2 16.6c1.3 5.4 3.2 10.7 5.8 15.7-7.6-3-13.9-8.6-17.8-15.7h12z"></path></g></switch></g><!----></svg>