<svg data-v-fde0c5aa="" xmlns="http://www.w3.org/2000/svg" viewBox="0 0 300 300" class="iconLeft"><!----><defs data-v-fde0c5aa=""><!----></defs><rect data-v-fde0c5aa="" fill="transparent" x="0" y="0" width="300px" height="300px" class="logo-background-square"></rect><defs data-v-fde0c5aa=""><!----></defs><g data-v-fde0c5aa="" id="0cf4bb8d-3925-4d32-af5e-6d80afe072a3" fill="#000000" transform="matrix(1.7185331608426335,0,0,1.7185331608426335,76.90747956776407,125.59682862435834)"><path d="M3.64 9.24L3.64 9.24Q3.19 9.24 2.93 9.02L2.93 9.02L2.93 9.02Q2.66 8.81 2.66 8.44L2.66 8.44L2.66 8.44Q2.66 8.02 3.01 7.71L3.01 7.71L3.01 7.71Q3.36 7.39 3.91 7.39L3.91 7.39L3.91 7.39Q4.37 7.39 4.63 7.61L4.63 7.61L4.63 7.61Q4.89 7.83 4.89 8.18L4.89 8.18L4.89 8.18Q4.89 8.62 4.54 8.93L4.54 8.93L4.54 8.93Q4.19 9.24 3.64 9.24L3.64 9.24ZM2.39 19.18L2.39 19.18Q1.92 19.18 1.68 18.94L1.68 18.94L1.68 18.94Q1.44 18.70 1.44 18.19L1.44 18.19L1.44 18.19Q1.44 17.61 1.72 16.14L1.72 16.14L1.72 16.14Q1.99 14.67 2.65 11.72L2.65 11.72L2.03 11.02L2.03 11.02Q2.37 10.75 2.81 10.59L2.81 10.59L2.81 10.59Q3.25 10.43 3.61 10.43L3.61 10.43L3.61 10.43Q4.03 10.43 4.21 10.61L4.21 10.61L4.21 10.61Q4.38 10.78 4.38 11.20L4.38 11.20L4.38 11.20Q4.38 11.31 4.12 12.40L4.12 12.40L4.12 12.40Q3.68 14.18 3.40 15.62L3.40 15.62L3.40 15.62Q3.11 17.07 3.11 18.06L3.11 18.06L3.11 18.06Q3.11 18.59 3.36 18.80L3.36 18.80L3.36 18.80Q2.90 19.18 2.39 19.18L2.39 19.18ZM14.15 14.13L14.15 14.13Q12.60 13.44 12.60 11.86L12.60 11.86L12.60 11.86Q12.60 11.17 12.99 10.72L12.99 10.72L12.99 10.72Q13.38 10.26 13.97 10.26L13.97 10.26L13.97 10.26Q14.69 10.26 15.09 10.90L15.09 10.90L15.09 10.90Q15.50 11.54 15.50 12.66L15.50 12.66L15.50 12.66Q15.50 14.48 14.80 15.97L14.80 15.97L14.80 15.97Q14.11 17.46 12.89 18.32L12.89 18.32L12.89 18.32Q11.66 19.18 10.14 19.18L10.14 19.18L10.14 19.18Q8.95 19.18 8.06 18.66L8.06 18.66L8.06 18.66Q7.17 18.13 6.68 17.16L6.68 17.16L6.68 17.16Q6.19 16.18 6.19 14.90L6.19 14.90L6.19 14.90Q6.19 13.03 6.92 11.62L6.92 11.62L6.92 11.62Q7.64 10.21 8.86 9.44L8.86 9.44L8.86 9.44Q10.08 8.68 11.52 8.68L11.52 8.68L11.52 8.68Q12.22 8.68 12.56 8.88L12.56 8.88L12.56 8.88Q12.89 9.09 12.89 9.52L12.89 9.52L12.89 9.52Q12.89 9.79 12.78 10.05L12.78 10.05L12.78 10.05Q12.60 10.01 12.36 9.98L12.36 9.98L12.36 9.98Q12.12 9.94 11.96 9.94L11.96 9.94L11.96 9.94Q10.85 9.94 9.95 10.56L9.95 10.56L9.95 10.56Q9.04 11.17 8.52 12.29L8.52 12.29L8.52 12.29Q7.99 13.40 7.99 14.84L7.99 14.84L7.99 14.84Q7.99 16.49 8.67 17.35L8.67 17.35L8.67 17.35Q9.35 18.20 10.51 18.20L10.51 18.20L10.51 18.20Q11.28 18.20 12.07 17.69L12.07 17.69L12.07 17.69Q12.87 17.18 13.43 16.25L13.43 16.25L13.43 16.25Q14 15.32 14.15 14.13L14.15 14.13ZM20.34 19.18L20.34 19.18Q18.76 19.18 17.80 18.71L17.80 18.71L17.80 18.71Q16.84 18.24 16.84 17.40L16.84 17.40L16.84 17.40Q16.84 17.09 17.00 16.82L17.00 16.82L17.00 16.82Q17.16 16.55 17.44 16.38L17.44 16.38L17.44 16.38Q17.88 17.23 18.63 17.69L18.63 17.69L18.63 17.69Q19.38 18.14 20.26 18.14L20.26 18.14L20.26 18.14Q21.46 18.14 22.19 17.72L22.19 17.72L22.19 17.72Q22.92 17.30 22.92 16.52L22.92 16.52L22.92 16.52Q22.92 16.13 22.63 15.83L22.63 15.83L22.63 15.83Q22.34 15.54 21.90 15.34L21.90 15.34L21.90 15.34Q21.46 15.13 20.71 14.85L20.71 14.85L20.71 14.85Q19.67 14.48 19.03 14.14L19.03 14.14L19.03 14.14Q18.40 13.80 17.93 13.24L17.93 13.24L17.93 13.24Q17.47 12.67 17.47 11.83L17.47 11.83L17.47 11.83Q17.47 10.92 18.09 10.20L18.09 10.20L18.09 10.20Q18.72 9.48 19.84 9.07L19.84 9.07L19.84 9.07Q20.97 8.67 22.44 8.67L22.44 8.67L22.44 8.67Q23.30 8.67 23.98 8.84L23.98 8.84L23.98 8.84Q24.65 9.02 25.04 9.32L25.04 9.32L25.04 9.32Q25.42 9.63 25.42 10.04L25.42 10.04L25.42 10.04Q25.42 10.63 25.04 10.94L25.04 10.94L25.04 10.94Q24.65 11.26 24.02 11.26L24.02 11.26L24.02 11.26Q22.75 11.26 22.29 9.74L22.29 9.74L22.29 9.74Q20.87 9.91 20.08 10.42L20.08 10.42L20.08 10.42Q19.28 10.93 19.28 11.63L19.28 11.63L19.28 11.63Q19.28 12.00 19.56 12.27L19.56 12.27L19.56 12.27Q19.84 12.54 20.26 12.73L20.26 12.73L20.26 12.73Q20.68 12.92 21.45 13.22L21.45 13.22L21.45 13.22Q22.47 13.58 23.13 13.92L23.13 13.92L23.13 13.92Q23.79 14.25 24.26 14.81L24.26 14.81L24.26 14.81Q24.72 15.37 24.72 16.20L24.72 16.20L24.72 16.20Q24.72 17.01 24.21 17.69L24.21 17.69L24.21 17.69Q23.70 18.37 22.71 18.77L22.71 18.77L22.71 18.77Q21.73 19.18 20.34 19.18L20.34 19.18ZM28.24 17.72L28.24 17.72Q28.24 16.56 28.46 15.09L28.46 15.09L28.46 15.09Q28.69 13.61 29.19 11.42L29.19 11.42L29.19 11.42Q28.48 11.42 28.02 11.14L28.02 11.14L28.02 11.14Q27.57 10.86 27.47 10.36L27.47 10.36L27.47 10.36Q28.14 10.16 28.62 9.95L28.62 9.95L28.62 9.95Q29.11 9.74 29.68 9.44L29.68 9.44L29.68 9.44Q30.09 9.21 30.32 9.12L30.32 9.12L30.32 9.12Q30.56 9.03 30.79 9.03L30.79 9.03L30.79 9.03Q31.35 9.03 31.35 9.67L31.35 9.67L31.35 9.67Q31.35 9.88 31.23 10.44L31.23 10.44L31.23 10.44Q31.12 10.99 30.97 11.63L30.97 11.63L30.97 11.63Q30.53 13.50 30.27 14.91L30.27 14.91L30.27 14.91Q30.02 16.32 30.02 17.57L30.02 17.57L30.02 17.57Q30.02 18.33 30.25 18.89L30.25 18.89L30.25 18.89Q29.71 19.18 29.23 19.18L29.23 19.18L29.23 19.18Q28.74 19.18 28.49 18.81L28.49 18.81L28.49 18.81Q28.24 18.44 28.24 17.72L28.24 17.72ZM38.57 14.87L38.57 14.87Q39.37 15.25 39.82 15.91L39.82 15.91L39.82 15.91Q40.28 16.58 40.28 17.39L40.28 17.39L40.28 17.39Q40.28 18.42 39.62 19.25L39.62 19.25L39.62 19.25Q38.96 20.08 37.79 20.55L37.79 20.55L37.79 20.55Q36.62 21.01 35.17 21.01L35.17 21.01L35.17 21.01Q33.98 21.01 33.40 20.69L33.40 20.69L33.40 20.69Q32.82 20.37 32.82 19.73L32.82 19.73L32.82 19.73Q32.82 19.32 33.14 19.05L33.14 19.05L33.14 19.05Q33.47 18.79 33.95 18.79L33.95 18.79L33.95 18.79Q34.37 18.79 34.78 19.10L34.78 19.10L34.78 19.10Q35.18 19.40 35.45 19.94L35.45 19.94L35.45 19.94Q36.29 19.94 36.99 19.61L36.99 19.61L36.99 19.61Q37.69 19.29 38.09 18.73L38.09 18.73L38.09 18.73Q38.50 18.17 38.50 17.50L38.50 17.50L38.50 17.50Q38.50 16.90 38.17 16.36L38.17 16.36L38.17 16.36Q37.84 15.82 37.38 15.68L37.38 15.68L37.38 15.68Q36.46 16.30 35.81 16.30L35.81 16.30L35.81 16.30Q35.43 16.30 35.17 16.07L35.17 16.07L35.17 16.07Q34.92 15.83 34.92 15.50L34.92 15.50L34.92 15.50Q34.92 15.01 35.34 14.71L35.34 14.71L35.34 14.71Q35.77 14.42 36.47 14.42L36.47 14.42L36.47 14.42Q36.93 14.42 37.27 14.48L37.27 14.48L37.27 14.48Q37.94 14.06 38.32 13.44L38.32 13.44L38.32 13.44Q38.70 12.82 38.70 12.14L38.70 12.14L38.70 12.14Q38.70 10.33 37.06 10.33L37.06 10.33L37.06 10.33Q36.50 10.33 36.03 10.63L36.03 10.63L36.03 10.63Q35.56 10.93 35.26 11.46L35.26 11.46L35.26 11.46Q34.96 11.98 34.92 12.63L34.92 12.63L34.92 12.63Q34.41 12.56 34.13 12.26L34.13 12.26L34.13 12.26Q33.84 11.97 33.84 11.49L33.84 11.49L33.84 11.49Q33.84 10.77 34.29 10.21L34.29 10.21L34.29 10.21Q34.73 9.65 35.56 9.34L35.56 9.34L35.56 9.34Q36.39 9.03 37.46 9.03L37.46 9.03L37.46 9.03Q38.33 9.03 39.02 9.37L39.02 9.37L39.02 9.37Q39.70 9.70 40.09 10.30L40.09 10.30L40.09 10.30Q40.47 10.91 40.47 11.66L40.47 11.66L40.47 11.66Q40.47 12.52 39.98 13.34L39.98 13.34L39.98 13.34Q39.49 14.15 38.57 14.87L38.57 14.87ZM52.77 8.69L52.77 8.69Q53.69 8.69 54.36 9.13L54.36 9.13L54.36 9.13Q55.03 9.56 55.38 10.28L55.38 10.28L55.38 10.28Q55.72 10.99 55.72 11.83L55.72 11.83L55.72 11.83Q55.72 12.94 55.26 13.87L55.26 13.87L55.26 13.87Q54.80 14.81 53.87 15.39L53.87 15.39L53.87 15.39Q52.93 15.96 51.56 15.96L51.56 15.96L51.56 15.96Q50.51 15.96 49.66 15.57L49.66 15.57L49.66 15.57Q49.43 17.21 49.43 17.60L49.43 17.60L49.43 17.60Q49.43 18.41 49.77 18.83L49.77 18.83L49.77 18.83Q49.22 19.19 48.69 19.19L48.69 19.19L48.69 19.19Q48.17 19.19 47.94 18.93L47.94 18.93L47.94 18.93Q47.70 18.66 47.70 18.06L47.70 18.06L47.70 18.06Q47.70 17.25 47.92 15.60L47.92 15.60L47.92 15.60Q48.15 13.94 48.78 10.11L48.78 10.11L48.34 9.25L48.34 9.25Q49.28 8.67 50.01 8.67L50.01 8.67L50.01 8.67Q50.58 8.67 50.62 9.30L50.62 9.30L50.62 9.30Q51.53 8.69 52.77 8.69L52.77 8.69ZM50.97 14.88L50.97 14.88Q51.88 14.88 52.56 14.51L52.56 14.51L52.56 14.51Q53.23 14.14 53.59 13.50L53.59 13.50L53.59 13.50Q53.94 12.85 53.94 12.03L53.94 12.03L53.94 12.03Q53.94 11.06 53.45 10.44L53.45 10.44L53.45 10.44Q52.95 9.81 51.86 9.81L51.86 9.81L51.86 9.81Q51.21 9.81 50.53 10.18L50.53 10.18L50.53 10.18Q50.27 11.69 50.19 12.21L50.19 12.21L49.80 14.66L49.80 14.66Q50.33 14.88 50.97 14.88L50.97 14.88ZM58.28 19.18L58.28 19.18Q57.33 19.18 57.33 18.02L57.33 18.02L57.33 18.02Q57.33 17.44 57.71 15.49L57.71 15.49L57.71 15.49Q58.10 13.54 58.55 11.83L58.55 11.83L57.93 11.13L57.93 11.13Q58.73 10.47 59.32 10.47L59.32 10.47L59.32 10.47Q59.71 10.47 59.89 10.69L59.89 10.69L59.89 10.69Q60.07 10.91 60.07 11.24L60.07 11.24L60.07 11.24Q60.07 11.68 59.93 12.19L59.93 12.19L59.93 12.19Q59.78 12.70 59.50 13.38L59.50 13.38L59.64 13.45L59.64 13.45Q60.93 10.42 62.40 10.42L62.40 10.42L62.40 10.42Q63.32 10.42 63.32 11.24L63.32 11.24L63.32 11.24Q63.32 11.70 62.96 11.98L62.96 11.98L62.96 11.98Q62.59 12.26 62.01 12.26L62.01 12.26L62.01 12.26Q61.26 12.26 60.56 13.10L60.56 13.10L60.56 13.10Q59.86 13.94 59.43 15.29L59.43 15.29L59.43 15.29Q59.00 16.63 59.00 18.06L59.00 18.06L59.00 18.06Q59.00 18.58 59.16 18.79L59.16 18.79L59.16 18.79Q58.74 19.18 58.28 19.18L58.28 19.18ZM71.01 12.43L71.01 12.43Q71.01 13.87 69.53 14.69L69.53 14.69L69.53 14.69Q68.05 15.51 65.32 15.58L65.32 15.58L65.32 15.85L65.32 15.85Q65.32 16.97 65.74 17.61L65.74 17.61L65.74 17.61Q66.16 18.24 66.89 18.24L66.89 18.24L66.89 18.24Q67.80 18.24 68.38 17.67L68.38 17.67L68.38 17.67Q68.95 17.09 69.01 16.14L69.01 16.14L69.01 16.14Q70.14 16.14 70.14 16.98L70.14 16.98L70.14 16.98Q70.14 17.54 69.69 18.05L69.69 18.05L69.69 18.05Q69.24 18.56 68.47 18.87L68.47 18.87L68.47 18.87Q67.69 19.18 66.75 19.18L66.75 19.18L66.75 19.18Q65.27 19.18 64.43 18.27L64.43 18.27L64.43 18.27Q63.59 17.36 63.59 15.76L63.59 15.76L63.59 15.76Q63.59 14.25 64.25 13.03L64.25 13.03L64.25 13.03Q64.90 11.82 66.07 11.12L66.07 11.12L66.07 11.12Q67.23 10.43 68.66 10.43L68.66 10.43L68.66 10.43Q69.76 10.43 70.38 10.96L70.38 10.96L70.38 10.96Q71.01 11.49 71.01 12.43L71.01 12.43ZM68.42 11.31L68.42 11.31Q67.70 11.31 67.08 11.77L67.08 11.77L67.08 11.77Q66.46 12.22 66.02 13.01L66.02 13.01L66.02 13.01Q65.58 13.80 65.41 14.80L65.41 14.80L65.41 14.80Q67.34 14.76 68.41 14.13L68.41 14.13L68.41 14.13Q69.48 13.50 69.48 12.39L69.48 12.39L69.48 12.39Q69.48 11.90 69.19 11.61L69.19 11.61L69.19 11.61Q68.89 11.31 68.42 11.31L68.42 11.31ZM75.33 19.18L75.33 19.18Q73.95 19.18 73.15 18.80L73.15 18.80L73.15 18.80Q72.35 18.42 72.35 17.75L72.35 17.75L72.35 17.75Q72.35 17.47 72.52 17.22L72.52 17.22L72.52 17.22Q72.69 16.97 73.00 16.80L73.00 16.80L73.00 16.80Q73.35 17.50 73.93 17.87L73.93 17.87L73.93 17.87Q74.52 18.24 75.24 18.24L75.24 18.24L75.24 18.24Q76.24 18.24 76.86 17.86L76.86 17.86L76.86 17.86Q77.48 17.49 77.48 16.77L77.48 16.77L77.48 16.77Q77.48 16.34 77.02 16.07L77.02 16.07L77.02 16.07Q76.57 15.81 75.63 15.48L75.63 15.48L75.63 15.48Q74.76 15.19 74.20 14.92L74.20 14.92L74.20 14.92Q73.64 14.66 73.25 14.20L73.25 14.20L73.25 14.20Q72.86 13.75 72.86 13.08L72.86 13.08L72.86 13.08Q72.86 12.31 73.39 11.70L73.39 11.70L73.39 11.70Q73.92 11.10 74.86 10.77L74.86 10.77L74.86 10.77Q75.81 10.43 77.04 10.43L77.04 10.43L77.04 10.43Q78.16 10.43 78.88 10.77L78.88 10.77L78.88 10.77Q79.60 11.10 79.60 11.62L79.60 11.62L79.60 11.62Q79.60 12.12 79.27 12.40L79.27 12.40L79.27 12.40Q78.93 12.67 78.39 12.67L78.39 12.67L78.39 12.67Q77.85 12.67 77.48 12.33L77.48 12.33L77.48 12.33Q77.10 12.00 76.90 11.35L76.90 11.35L76.90 11.35Q75.75 11.48 75.10 11.89L75.10 11.89L75.10 11.89Q74.45 12.31 74.45 12.89L74.45 12.89L74.45 12.89Q74.45 13.30 74.88 13.55L74.88 13.55L74.88 13.55Q75.31 13.79 76.26 14.13L76.26 14.13L76.26 14.13Q77.15 14.43 77.71 14.70L77.71 14.70L77.71 14.70Q78.26 14.97 78.66 15.42L78.66 15.42L78.66 15.42Q79.06 15.88 79.06 16.56L79.06 16.56L79.06 16.56Q79.06 17.30 78.61 17.90L78.61 17.90L78.61 17.90Q78.16 18.49 77.31 18.84L77.31 18.84L77.31 18.84Q76.47 19.18 75.33 19.18L75.33 19.18ZM88.76 12.43L88.76 12.43Q88.76 13.87 87.28 14.69L87.28 14.69L87.28 14.69Q85.81 15.51 83.08 15.58L83.08 15.58L83.08 15.85L83.08 15.85Q83.08 16.97 83.50 17.61L83.50 17.61L83.50 17.61Q83.92 18.24 84.64 18.24L84.64 18.24L84.64 18.24Q85.55 18.24 86.13 17.67L86.13 17.67L86.13 17.67Q86.70 17.09 86.76 16.14L86.76 16.14L86.76 16.14Q87.89 16.14 87.89 16.98L87.89 16.98L87.89 16.98Q87.89 17.54 87.44 18.05L87.44 18.05L87.44 18.05Q87.00 18.56 86.22 18.87L86.22 18.87L86.22 18.87Q85.44 19.18 84.50 19.18L84.50 19.18L84.50 19.18Q83.02 19.18 82.18 18.27L82.18 18.27L82.18 18.27Q81.34 17.36 81.34 15.76L81.34 15.76L81.34 15.76Q81.34 14.25 82.00 13.03L82.00 13.03L82.00 13.03Q82.66 11.82 83.82 11.12L83.82 11.12L83.82 11.12Q84.98 10.43 86.41 10.43L86.41 10.43L86.41 10.43Q87.51 10.43 88.14 10.96L88.14 10.96L88.14 10.96Q88.76 11.49 88.76 12.43L88.76 12.43ZM86.17 11.31L86.17 11.31Q85.46 11.31 84.83 11.77L84.83 11.77L84.83 11.77Q84.21 12.22 83.77 13.01L83.77 13.01L83.77 13.01Q83.33 13.80 83.16 14.80L83.16 14.80L83.16 14.80Q85.09 14.76 86.16 14.13L86.16 14.13L86.16 14.13Q87.23 13.50 87.23 12.39L87.23 12.39L87.23 12.39Q87.23 11.90 86.94 11.61L86.94 11.61L86.94 11.61Q86.65 11.31 86.17 11.31L86.17 11.31ZM91.76 19.18L91.76 19.18Q91.27 19.18 91.03 18.94L91.03 18.94L91.03 18.94Q90.80 18.70 90.80 18.19L90.80 18.19L90.80 18.19Q90.80 17.57 91.17 15.65L91.17 15.65L91.17 15.65Q91.55 13.72 92.02 11.83L92.02 11.83L91.39 11.13L91.39 11.13Q91.73 10.84 92.18 10.65L92.18 10.65L92.18 10.65Q92.64 10.47 93.00 10.47L93.00 10.47L93.00 10.47Q93.42 10.47 93.59 10.64L93.59 10.64L93.59 10.64Q93.76 10.81 93.76 11.24L93.76 11.24L93.76 11.24Q93.76 11.61 93.64 12.07L93.64 12.07L93.64 12.07Q93.52 12.53 93.32 12.92L93.32 12.92L93.46 12.99L93.46 12.99Q94.88 10.43 97.13 10.43L97.13 10.43L97.13 10.43Q98.04 10.43 98.48 10.89L98.48 10.89L98.48 10.89Q98.92 11.34 98.92 12.29L98.92 12.29L98.92 12.29Q98.92 12.85 98.80 13.45L98.80 13.45L98.80 13.45Q98.69 14.06 98.46 14.97L98.46 14.97L98.46 14.97Q98.20 16.03 98.07 16.71L98.07 16.71L98.07 16.71Q97.94 17.39 97.94 18.06L97.94 18.06L97.94 18.06Q97.94 18.56 98.13 18.79L98.13 18.79L98.13 18.79Q97.71 19.18 97.23 19.18L97.23 19.18L97.23 19.18Q96.75 19.18 96.52 18.94L96.52 18.94L96.52 18.94Q96.29 18.70 96.29 18.19L96.29 18.19L96.29 18.19Q96.29 17.65 96.41 16.99L96.41 16.99L96.41 16.99Q96.53 16.32 96.75 15.26L96.75 15.26L96.75 15.26Q96.96 14.38 97.07 13.78L97.07 13.78L97.07 13.78Q97.17 13.19 97.17 12.75L97.17 12.75L97.17 12.75Q97.17 11.62 96.32 11.62L96.32 11.62L96.32 11.62Q95.33 11.62 94.44 12.57L94.44 12.57L94.44 12.57Q93.55 13.51 93.01 15.01L93.01 15.01L93.01 15.01Q92.47 16.51 92.47 18.06L92.47 18.06L92.47 18.06Q92.47 18.58 92.64 18.79L92.64 18.79L92.64 18.79Q92.22 19.18 91.76 19.18L91.76 19.18ZM105.90 11.28L105.90 11.28Q106.26 11.28 106.40 11.42L106.40 11.42L106.40 11.42Q106.54 11.56 106.54 11.84L106.54 11.84L106.54 11.84Q106.54 12.21 106.32 12.50L106.32 12.50L106.32 12.50Q106.11 12.45 105.75 12.41L105.75 12.41L105.75 12.41Q105.39 12.38 105.08 12.38L105.08 12.38L105.08 12.38Q104.82 12.38 104.69 12.39L104.69 12.39L104.69 12.39Q104.19 14.01 103.90 15.32L103.90 15.32L103.90 15.32Q103.61 16.63 103.63 17.92L103.63 17.92L104.08 18.68L104.08 18.68Q103.82 18.93 103.51 19.05L103.51 19.05L103.51 19.05Q103.19 19.18 102.90 19.18L102.90 19.18L102.90 19.18Q102.47 19.18 102.21 18.93L102.21 18.93L102.21 18.93Q101.96 18.68 101.96 17.99L101.96 17.99L101.96 17.99Q101.96 17.30 102.14 16.42L102.14 16.42L102.14 16.42Q102.33 15.53 102.68 14.13L102.68 14.13L103.04 12.63L103.04 12.63Q102.58 12.70 102.19 12.70L102.19 12.70L102.19 12.70Q101.84 12.70 101.68 12.57L101.68 12.57L101.68 12.57Q101.53 12.43 101.53 12.15L101.53 12.15L101.53 12.15Q101.53 11.79 101.75 11.47L101.75 11.47L101.75 11.47Q102.14 11.59 103.03 11.59L103.03 11.59L103.25 11.59L103.25 11.59Q103.31 11.03 103.31 10.85L103.31 10.85L103.31 10.85Q103.31 10.32 103.14 9.60L103.14 9.60L103.14 9.60Q103.38 9.35 103.77 9.21L103.77 9.21L103.77 9.21Q104.16 9.06 104.54 9.06L104.54 9.06L104.54 9.06Q104.94 9.06 105.13 9.24L105.13 9.24L105.13 9.24Q105.31 9.42 105.31 9.84L105.31 9.84L105.31 9.84Q105.31 10.29 105.00 11.35L105.00 11.35L105.00 11.35Q105.49 11.28 105.90 11.28L105.90 11.28Z"></path></g><defs data-v-fde0c5aa=""><linearGradient data-v-fde0c5aa="" gradientTransform="rotate(25)" id="8eb5e255-6888-4b67-9402-1262377c0650" x1="0%" y1="0%" x2="100%" y2="0%"><stop data-v-fde0c5aa="" offset="0%" stop-color="#122663" stop-opacity="1"></stop><stop data-v-fde0c5aa="" offset="100%" stop-color="#5DD7AD" stop-opacity="1"></stop></linearGradient></defs><g data-v-fde0c5aa="" id="4eb9614f-6b6f-4d16-b7aa-95b2094881dc" stroke="none" fill="url(#8eb5e255-6888-4b67-9402-1262377c0650)" transform="matrix(0.3511008465878629,0,0,0.3511008465878629,39.99974883125062,132.44518268030467)"><path d="M56.572 55.698c0-1.52 6.527-21.734-6.182-27.847C35.748 20.808 31.701 15.19 31.822 6.188c-.009.365-8.855 14.62-3.094 21.663 8.942 10.902 5.166 19.343 0 18.566-8.68-1.301-7.632-12.617-6.191-15.472-4.536-.478-9.782 2.343-12.378 6.188-7.808 11.598 9.114 22.696 3.097 30.944C8.677 74.362.852 61.987.878 61.889c-9.29 48.494 58.182 49.726 61.889 9.284 1.104-12.128 12.024-18.725 12.375-18.569-11.627-5.361-18.57 3.482-18.57 3.094zM34.918 89.743c-16.223.598-14.557-11.559-12.381-15.473 2.763-4.984 9.76-5.969 6.191-12.381.046.098 7.589 1.231 12.373 6.188 7.338 7.575 6.503 21.187-6.183 21.666z"></path><path d="M44.197 15.472C42.303 13.44 41.1 11 41.1 9.282c0-3.221 2.631-6.317 6.193-9.282.357 2.579-1.543 6.447 0 9.282 1.197 2.098 3.097 4.472 3.097 6.19 0 2.302-.857 4.4-3.097 6.188-.339-.861-.932-3.684-3.096-6.188z"></path></g><!----></svg>