<svg data-v-423bf9ae="" xmlns="http://www.w3.org/2000/svg" viewBox="0 0 454 90" class="iconLeft"><!----><!----><!----><g data-v-423bf9ae="" id="6a72a575-2e18-46b9-afdd-5a013e92f16e" fill="black" transform="matrix(5.8365760270947415,0,0,5.8365760270947415,110.17027778397471,-6.245136158813153)"><path d="M4.27 13.92L4.27 13.92L4.27 13.92Q3.21 13.92 2.39 13.38L2.39 13.38L2.39 13.38Q1.58 12.85 1.15 11.89L1.15 11.89L2.58 11.20L2.58 11.20Q3.16 12.33 4.28 12.33L4.28 12.33L4.28 12.33Q5.88 12.33 5.88 10.33L5.88 10.33L5.88 3.95L7.53 3.95L7.53 10.42L7.53 10.42Q7.53 11.41 7.24 12.12L7.24 12.12L7.24 12.12Q6.94 12.84 6.44 13.21L6.44 13.21L6.44 13.21Q5.94 13.58 5.40 13.75L5.40 13.75L5.40 13.75Q4.87 13.92 4.27 13.92ZM16.20 9.81L16.20 9.81L16.20 9.81Q16.20 10.43 16.14 10.79L16.14 10.79L11.27 10.79L11.27 10.79Q11.42 11.58 11.89 12.03L11.89 12.03L11.89 12.03Q12.36 12.49 13.10 12.49L13.10 12.49L13.10 12.49Q14.04 12.49 14.69 11.79L14.69 11.79L15.65 12.81L15.65 12.81Q14.64 13.92 13.09 13.92L13.09 13.92L13.09 13.92Q11.51 13.92 10.59 12.89L10.59 12.89L10.59 12.89Q9.67 11.87 9.67 10.16L9.67 10.16L9.67 10.16Q9.67 8.43 10.60 7.43L10.60 7.43L10.60 7.43Q11.52 6.43 13.09 6.43L13.09 6.43L13.09 6.43Q14.46 6.43 15.33 7.29L15.33 7.29L15.33 7.29Q16.20 8.15 16.20 9.81ZM11.26 9.42L11.26 9.42L14.62 9.42L14.62 9.42Q14.55 8.64 14.12 8.24L14.12 8.24L14.12 8.24Q13.69 7.84 13.09 7.84L13.09 7.84L13.09 7.84Q12.32 7.84 11.85 8.26L11.85 8.26L11.85 8.26Q11.38 8.68 11.26 9.42ZM22.06 6.43L22.06 6.43L22.06 6.43Q23.24 6.43 23.98 7.13L23.98 7.13L23.98 7.13Q24.71 7.84 24.71 9.38L24.71 9.38L24.71 13.75L23.10 13.75L23.10 9.72L23.10 9.72Q23.10 8.79 22.69 8.37L22.69 8.37L22.69 8.37Q22.29 7.95 21.62 7.95L21.62 7.95L21.62 7.95Q20.03 7.95 20.03 9.69L20.03 9.69L20.03 13.75L18.42 13.75L18.42 6.59L19.91 6.59L19.91 7.48L19.91 7.48Q20.12 7.06 20.73 6.74L20.73 6.74L20.73 6.74Q21.34 6.43 22.06 6.43ZM33.59 13.75L31.82 13.75L29.78 9.80L28.71 10.82L28.71 13.75L27.10 13.75L27.10 4.40L28.71 3.64L28.71 9.04L31.21 6.59L33.12 6.59L30.97 8.67L33.59 13.75ZM38.86 5.60L38.86 5.60L38.86 5.60Q38.47 5.60 38.19 5.32L38.19 5.32L38.19 5.32Q37.91 5.04 37.91 4.63L37.91 4.63L37.91 4.63Q37.91 4.23 38.19 3.96L38.19 3.96L38.19 3.96Q38.47 3.68 38.86 3.68L38.86 3.68L38.86 3.68Q39.27 3.68 39.55 3.96L39.55 3.96L39.55 3.96Q39.83 4.23 39.83 4.63L39.83 4.63L39.83 4.63Q39.83 5.04 39.55 5.32L39.55 5.32L39.55 5.32Q39.27 5.60 38.86 5.60ZM39.68 6.59L39.68 12.33L41.65 12.33L41.65 13.75L36.09 13.75L36.09 12.33L38.07 12.33L38.07 8.01L36.09 8.01L36.09 6.59L39.68 6.59ZM47.94 6.43L47.94 6.43L47.94 6.43Q49.11 6.43 49.85 7.13L49.85 7.13L49.85 7.13Q50.58 7.84 50.58 9.38L50.58 9.38L50.58 13.75L48.97 13.75L48.97 9.72L48.97 9.72Q48.97 8.79 48.57 8.37L48.57 8.37L48.57 8.37Q48.16 7.95 47.49 7.95L47.49 7.95L47.49 7.95Q45.91 7.95 45.91 9.69L45.91 9.69L45.91 13.75L44.30 13.75L44.30 6.59L45.78 6.59L45.78 7.48L45.78 7.48Q45.99 7.06 46.60 6.74L46.60 6.74L46.60 6.74Q47.21 6.43 47.94 6.43ZM56.10 13.92L56.10 13.92L56.10 13.92Q55.19 13.92 54.42 13.57L54.42 13.57L54.42 13.57Q53.65 13.23 53.19 12.64L53.19 12.64L54.24 11.69L54.24 11.69Q55.12 12.54 56.18 12.54L56.18 12.54L56.18 12.54Q56.70 12.54 57.04 12.36L57.04 12.36L57.04 12.36Q57.37 12.18 57.37 11.82L57.37 11.82L57.37 11.82Q57.37 11.61 57.17 11.42L57.17 11.42L57.17 11.42Q56.97 11.23 56.70 11.10L56.70 11.10L56.70 11.10Q56.43 10.98 55.92 10.77L55.92 10.77L55.92 10.77Q55.86 10.74 55.83 10.72L55.83 10.72L55.83 10.72Q55.79 10.71 55.73 10.69L55.73 10.69L55.73 10.69Q55.68 10.67 55.64 10.65L55.64 10.65L55.64 10.65Q55.12 10.43 54.87 10.31L54.87 10.31L54.87 10.31Q54.61 10.19 54.26 9.98L54.26 9.98L54.26 9.98Q53.90 9.76 53.74 9.56L53.74 9.56L53.74 9.56Q53.58 9.37 53.45 9.07L53.45 9.07L53.45 9.07Q53.33 8.76 53.33 8.39L53.33 8.39L53.33 8.39Q53.33 7.48 54.11 6.95L54.11 6.95L54.11 6.95Q54.89 6.43 56.08 6.43L56.08 6.43L56.08 6.43Q57.75 6.43 58.76 7.56L58.76 7.56L57.68 8.44L57.68 8.44Q56.91 7.80 56.03 7.80L56.03 7.80L56.03 7.80Q55.48 7.80 55.15 7.96L55.15 7.96L55.15 7.96Q54.82 8.12 54.82 8.41L54.82 8.41L54.82 8.41Q54.82 8.55 54.94 8.69L54.94 8.69L54.94 8.69Q55.05 8.82 55.33 8.97L55.33 8.97L55.33 8.97Q55.61 9.11 55.79 9.19L55.79 9.19L55.79 9.19Q55.97 9.27 56.41 9.44L56.41 9.44L56.41 9.44Q57.69 9.95 58.11 10.28L58.11 10.28L58.11 10.28Q58.86 10.86 58.87 11.80L58.87 11.80L58.87 11.80Q58.87 12.80 58.12 13.36L58.12 13.36L58.12 13.36Q57.37 13.92 56.10 13.92Z"></path></g><!----><g data-v-423bf9ae="" id="bd2d064c-1b71-45b3-88d0-e48b17283962" transform="matrix(1.3235292632687217,0,0,1.3235292632687217,-16.776461020474073,-21.17646821229954)" stroke="none" fill="black"><path d="M76.7 52.7c.6 0 1.1 0 1.7.1-.9-9.3-6.2-17.4-13.9-21.9-2.1 6-7.8 10.3-14.5 10.3s-12.4-4.3-14.5-10.3c-7.7 4.5-13 12.6-13.9 21.9.5-.1 1.1-.1 1.7-.1 8.5 0 15.4 6.9 15.4 15.4 0 4.3-1.8 8.2-4.6 11 4.6 3.1 10.1 4.9 16 4.9s11.4-1.8 16-4.9c-2.9-2.8-4.6-6.7-4.6-11-.1-8.5 6.8-15.4 15.2-15.4z"></path><path d="M50 35.7c5.4 0 9.9-4.4 9.9-9.9S55.4 16 50 16s-9.9 4.4-9.9 9.9 4.5 9.8 9.9 9.8zM23.3 58.2c-5.4 0-9.9 4.4-9.9 9.9 0 5.4 4.4 9.9 9.9 9.9 5.4 0 9.9-4.4 9.9-9.9-.1-5.4-4.5-9.9-9.9-9.9zM76.7 58.2c-5.4 0-9.9 4.4-9.9 9.9 0 5.4 4.4 9.9 9.9 9.9 5.4 0 9.9-4.4 9.9-9.9 0-5.4-4.4-9.9-9.9-9.9z"></path></g><!----></svg>