<svg data-v-423bf9ae="" xmlns="http://www.w3.org/2000/svg" viewBox="0 0 64.58822535478643 60" class="icon"><!----><!----><!----><!----><g data-v-423bf9ae="" id="4e42b735-a2c3-4af3-8dd7-911b3d602828" transform="matrix(0.8823528421791478,0,0,0.8823528421791478,-11.823527266823213,-14.117645474866364)" stroke="none" fill="black"><path d="M76.7 52.7c.6 0 1.1 0 1.7.1-.9-9.3-6.2-17.4-13.9-21.9-2.1 6-7.8 10.3-14.5 10.3s-12.4-4.3-14.5-10.3c-7.7 4.5-13 12.6-13.9 21.9.5-.1 1.1-.1 1.7-.1 8.5 0 15.4 6.9 15.4 15.4 0 4.3-1.8 8.2-4.6 11 4.6 3.1 10.1 4.9 16 4.9s11.4-1.8 16-4.9c-2.9-2.8-4.6-6.7-4.6-11-.1-8.5 6.8-15.4 15.2-15.4z"></path><path d="M50 35.7c5.4 0 9.9-4.4 9.9-9.9S55.4 16 50 16s-9.9 4.4-9.9 9.9 4.5 9.8 9.9 9.8zM23.3 58.2c-5.4 0-9.9 4.4-9.9 9.9 0 5.4 4.4 9.9 9.9 9.9 5.4 0 9.9-4.4 9.9-9.9-.1-5.4-4.5-9.9-9.9-9.9zM76.7 58.2c-5.4 0-9.9 4.4-9.9 9.9 0 5.4 4.4 9.9 9.9 9.9 5.4 0 9.9-4.4 9.9-9.9 0-5.4-4.4-9.9-9.9-9.9z"></path></g><!----></svg>