<svg data-v-fde0c5aa="" xmlns="http://www.w3.org/2000/svg" viewBox="0 0 300 300" class="icon"><!----><defs data-v-fde0c5aa=""><!----></defs><rect data-v-fde0c5aa="" fill="#FA485D" x="0" y="0" width="300px" height="300px" class="logo-background-square"></rect><!----><defs data-v-fde0c5aa=""><!----></defs><g data-v-fde0c5aa="" id="20fb693d-ba58-49f2-a158-f8c2414bbb62" fill="#FFED83" stroke="none" transform="matrix(3.0054646061741814,0,0,3.0054646061741814,-0.27322457624026697,-0.27324177364668145)"><path d="M76.7 52.7c.6 0 1.1 0 1.7.1-.9-9.3-6.2-17.4-13.9-21.9-2.1 6-7.8 10.3-14.5 10.3s-12.4-4.3-14.5-10.3c-7.7 4.5-13 12.6-13.9 21.9.5-.1 1.1-.1 1.7-.1 8.5 0 15.4 6.9 15.4 15.4 0 4.3-1.8 8.2-4.6 11 4.6 3.1 10.1 4.9 16 4.9s11.4-1.8 16-4.9c-2.9-2.8-4.6-6.7-4.6-11-.1-8.5 6.8-15.4 15.2-15.4z"></path><path d="M50 35.7c5.4 0 9.9-4.4 9.9-9.9S55.4 16 50 16s-9.9 4.4-9.9 9.9 4.5 9.8 9.9 9.8zM23.3 58.2c-5.4 0-9.9 4.4-9.9 9.9 0 5.4 4.4 9.9 9.9 9.9 5.4 0 9.9-4.4 9.9-9.9-.1-5.4-4.5-9.9-9.9-9.9zM76.7 58.2c-5.4 0-9.9 4.4-9.9 9.9 0 5.4 4.4 9.9 9.9 9.9 5.4 0 9.9-4.4 9.9-9.9 0-5.4-4.4-9.9-9.9-9.9z"></path></g><!----></svg>