<svg data-v-423bf9ae="" xmlns="http://www.w3.org/2000/svg" viewBox="0 0 595 90" class="iconLeft"><!----><!----><!----><g data-v-423bf9ae="" id="efffb24f-57dc-446c-8cef-5b9a50069936" fill="white" transform="matrix(6.349206477356088,0,0,6.349206477356088,131.27233815138706,15.063491820604433)"><path d="M2.65 9.44C2.86 9.44 3.08 9.25 3.14 9.03L3.60 5.92L3.60 8.93C3.60 9.21 3.82 9.44 4.10 9.44L4.49 9.44C4.77 9.44 5.00 9.21 5.00 8.93L5.00 0.50C5.00 0.22 4.77 0 4.49 0L4.07 0C3.86 0 3.63 0.18 3.58 0.39L2.49 6.03L1.39 0.39C1.34 0.18 1.12 0 0.91 0L0.49 0C0.21 0-0.01 0.22-0.01 0.50L-0.01 8.93C-0.01 9.21 0.21 9.44 0.49 9.44L0.88 9.44C1.15 9.44 1.39 9.21 1.39 8.93L1.39 5.89L1.86 9.04C1.90 9.25 2.13 9.44 2.34 9.44ZM6.71 0C6.43 0 6.20 0.22 6.20 0.50L6.20 8.93C6.20 9.21 6.43 9.44 6.71 9.44L9.73 9.44C10.01 9.44 10.23 9.21 10.23 8.93L10.23 8.55C10.23 8.27 10.01 8.05 9.73 8.05L7.59 8.05L7.59 5.40L9.35 5.40C9.63 5.40 9.86 5.18 9.86 4.90L9.86 4.52C9.86 4.24 9.63 4.02 9.35 4.02L7.59 4.02L7.59 1.39L9.73 1.39C10.01 1.39 10.23 1.16 10.23 0.88L10.23 0.50C10.23 0.22 10.01 0 9.73 0ZM11.10 0.88C11.10 1.16 11.33 1.39 11.61 1.39L12.74 1.39L12.74 8.92C12.74 9.20 12.96 9.42 13.24 9.42L13.62 9.42C13.90 9.42 14.13 9.20 14.13 8.92L14.13 1.39L15.27 1.39C15.55 1.39 15.78 1.16 15.78 0.88L15.78 0.49C15.78 0.21 15.55-0.01 15.27-0.01L11.61-0.01C11.33-0.01 11.10 0.21 11.10 0.49ZM17.63 4.03L17.63 0.50C17.63 0.22 17.40 0 17.12 0L16.73 0C16.45 0 16.23 0.22 16.23 0.50L16.23 8.93C16.23 9.21 16.45 9.44 16.73 9.44L17.12 9.44C17.40 9.44 17.63 9.21 17.63 8.93L17.63 5.42L19.18 5.42L19.18 8.93C19.18 9.21 19.40 9.44 19.68 9.44L20.08 9.44C20.36 9.44 20.58 9.21 20.58 8.93L20.58 0.50C20.58 0.22 20.36 0 20.08 0L19.68 0C19.40 0 19.18 0.22 19.18 0.50L19.18 4.03ZM21.74 6.69C21.74 7.80 22.05 8.44 22.48 8.88C22.95 9.32 23.53 9.44 24.04 9.44C24.56 9.44 25.14 9.32 25.61 8.88C26.04 8.44 26.33 7.80 26.33 6.69L26.33 2.73C26.33 0.95 25.58 0 24.04 0C22.51 0 21.74 0.97 21.74 2.73ZM23.14 2.73C23.14 1.82 23.42 1.39 24.04 1.39C24.64 1.39 24.93 1.79 24.93 2.73L24.93 6.69C24.93 7.64 24.63 8.05 24.04 8.05C23.44 8.05 23.14 7.62 23.14 6.69ZM29.39 9.44C31.07 9.44 31.85 8.48 31.85 6.66L31.85 2.77C31.85 0.95 31.07 0 29.39 0L27.96 0C27.68 0 27.45 0.22 27.45 0.50L27.45 8.93C27.45 9.21 27.68 9.44 27.96 9.44ZM29.39 1.39C30.13 1.39 30.44 1.83 30.44 2.77L30.44 6.66C30.44 7.60 30.13 8.05 29.39 8.05L28.84 8.05L28.84 1.39ZM35.91 6.69C35.91 7.80 36.22 8.44 36.65 8.88C37.11 9.32 37.69 9.44 38.22 9.44C38.72 9.44 39.31 9.32 39.77 8.88C40.21 8.44 40.50 7.80 40.50 6.69L40.50 6.50C40.50 6.22 40.28 5.99 40.01 5.99L39.61 5.99C39.33 5.99 39.10 6.22 39.10 6.50L39.10 6.69C39.10 7.20 39.03 7.57 38.86 7.80C38.74 7.94 38.49 8.05 38.22 8.05C37.62 8.05 37.32 7.63 37.32 6.69L37.32 2.73C37.32 1.79 37.63 1.39 38.22 1.39C38.79 1.39 39.10 1.79 39.10 2.73L39.10 2.93C39.10 3.21 39.33 3.43 39.61 3.43L40.01 3.43C40.28 3.43 40.50 3.21 40.50 2.93L40.50 2.73C40.50 1.67 40.21 0.97 39.76 0.55C39.30 0.13 38.74 0 38.22 0C37.69 0 37.13 0.13 36.67 0.55C36.22 0.97 35.91 1.67 35.91 2.73ZM42.85 4.03L42.85 0.50C42.85 0.22 42.63 0 42.35 0L41.96 0C41.68 0 41.45 0.22 41.45 0.50L41.45 8.93C41.45 9.21 41.68 9.44 41.96 9.44L42.35 9.44C42.63 9.44 42.85 9.21 42.85 8.93L42.85 5.42L44.41 5.42L44.41 8.93C44.41 9.21 44.63 9.44 44.91 9.44L45.30 9.44C45.58 9.44 45.81 9.21 45.81 8.93L45.81 0.50C45.81 0.22 45.58 0 45.30 0L44.91 0C44.63 0 44.41 0.22 44.41 0.50L44.41 4.03ZM50.78 9.04C50.83 9.25 51.06 9.44 51.27 9.44L51.67 9.44C52.01 9.44 52.23 9.14 52.16 8.82L50.23 0.39C50.19 0.18 49.95 0 49.74 0L49.43 0C49.22 0 49.00 0.18 48.94 0.39L47.67 5.87L47.00 8.83C46.93 9.16 47.15 9.44 47.49 9.44L47.89 9.44C48.10 9.44 48.33 9.25 48.38 9.04L48.87 6.86L50.30 6.86ZM49.59 3.23C49.85 4.42 49.83 4.80 49.98 5.47L49.20 5.47ZM56.74 9.44C57.02 9.44 57.25 9.21 57.25 8.93L57.25 0.50C57.25 0.22 57.02 0 56.74 0L56.35 0C56.07 0 55.85 0.22 55.85 0.50L55.85 5.12L53.90 0.31C53.84 0.15 53.62 0 53.44 0L53.10 0C52.84 0 52.60 0.22 52.60 0.50L52.60 8.93C52.60 9.21 52.84 9.44 53.10 9.44L53.51 9.44C53.77 9.44 54.01 9.21 54.01 8.93L54.01 4.31L55.96 9.13C56.01 9.28 56.25 9.44 56.42 9.44ZM62.48 9.44C62.76 9.44 62.99 9.21 62.99 8.93L62.99 0.50C62.99 0.22 62.76 0 62.48 0L62.09 0C61.81 0 61.59 0.22 61.59 0.50L61.59 5.12L59.64 0.31C59.58 0.15 59.36 0 59.18 0L58.84 0C58.58 0 58.34 0.22 58.34 0.50L58.34 8.93C58.34 9.21 58.58 9.44 58.84 9.44L59.25 9.44C59.51 9.44 59.75 9.21 59.75 8.93L59.75 4.31L61.70 9.13C61.75 9.28 61.99 9.44 62.16 9.44ZM64.58 0C64.30 0 64.08 0.22 64.08 0.50L64.08 8.93C64.08 9.21 64.30 9.44 64.58 9.44L67.61 9.44C67.89 9.44 68.11 9.21 68.11 8.93L68.11 8.55C68.11 8.27 67.89 8.05 67.61 8.05L65.46 8.05L65.46 5.40L67.23 5.40C67.51 5.40 67.73 5.18 67.73 4.90L67.73 4.52C67.73 4.24 67.51 4.02 67.23 4.02L65.46 4.02L65.46 1.39L67.61 1.39C67.89 1.39 68.11 1.16 68.11 0.88L68.11 0.50C68.11 0.22 67.89 0 67.61 0ZM72.93 8.55C72.93 8.27 72.70 8.05 72.42 8.05L70.34 8.05L70.34 0.50C70.34 0.22 70.11 0 69.85 0L69.44 0C69.16 0 68.94 0.22 68.94 0.50L68.94 8.93C68.94 9.21 69.16 9.44 69.44 9.44L72.42 9.44C72.70 9.44 72.93 9.21 72.93 8.93Z"></path></g><!----><g data-v-423bf9ae="" id="f14c0a50-8d49-4cf6-82f5-ff84309bcfdc" transform="matrix(1.2367396106462634,0,0,1.2367396106462634,-5.797597421137979,-16.222973586742754)" stroke="none" fill="white"><path d="M59.068 58.977l-7.232-1.746-.633.437 5.225 13.17-10.657 9.337.429.793 7.212 1.742 11.184-9.799z"></path><path d="M59.068 58.977l-7.232-1.746-.633.437 5.225 13.17-10.657 9.337.429.793 7.212 1.742 11.184-9.799z"></path><path d="M74.76 62.652l-7.231-1.745-.009.006-.885-.214 5.486 13.814-10.656 9.338.012.022-.635.559 1.053.214 5.808 1.402 1.401.338L80.141 76.35zM45.73 61.428l-7.348 5.053 4.233 7.845 6.11-5.35z"></path><path d="M45.73 61.428l-7.348 5.053 4.233 7.845 6.11-5.35z"></path><path d="M45.73 61.428l-7.348 5.053 4.233 7.845 6.11-5.35z"></path><path d="M45.73 61.428l-7.348 5.053 4.233 7.845 6.11-5.35zM54.445 22.237l3.738 6.533-4.38 18.74-5.456 3.666-3.758-9.301 3.61-15.438 6.246-4.2m2.018-8.623l-13.598 9.139-4.585 19.61 7.261 17.969 13.596-9.141 5.459-23.358-8.133-14.219zM25.88 73.909l-10.826-2.178-.345-13.985 11.407-7.883 11.17 3.081v13.082zM25.068 49.822l-3.395-10.68-5.434-5.381.146-2.371-2.298-1.844-2.457.706-.157 2.552 2.298 1.844 1.777-.511 5.463 5.41 2.604 8.191-6.33-4.92-7.671-1.116-.971-1.332-2.419.036L5.04 42.14l1.236 1.696 2.419-.037.912-1.335 7.373 1.072zM81.395 78.08l13.566 4.019-13.039-7.061.644 1.885z"></path></g><!----></svg>