<svg data-v-423bf9ae="" xmlns="http://www.w3.org/2000/svg" viewBox="0 0 293.70919104274424 163" class="iconAbove"><!----><!----><!----><g data-v-423bf9ae="" id="6234d303-38c6-4476-9a0f-6db34be4934c" fill="black" transform="matrix(5.934717742604922,0,0,5.934717742604922,-5.816025268505996,72.67359106608139)"><path d="M2.18 15.22C2.65 15.22 3.00 14.98 3.14 14.84C2.93 14.29 2.90 13.68 2.90 13.13L2.90 5.96C2.90 5.43 2.48 5.11 1.93 5.11C1.47 5.11 1.13 5.33 0.98 5.47C1.19 6.02 1.23 6.64 1.23 7.18L1.23 14.35C1.23 14.88 1.64 15.22 2.18 15.22ZM11.23 13.13L11.23 10.49C11.23 8.60 10.51 7.64 8.97 7.64C7.80 7.64 7 8.25 6.62 9.32C6.62 8.19 6.12 7.64 5.31 7.64C4.65 7.64 4.27 8.01 4.27 8.51C4.27 8.71 4.33 8.88 4.44 9.06C4.54 8.90 4.70 8.88 4.82 8.88C5.05 8.88 5.17 9.07 5.18 9.60L5.18 14.27C5.18 14.85 5.59 15.22 6.15 15.22C6.59 15.22 6.93 14.99 7.08 14.85C6.80 14.18 6.80 13.68 6.80 11.70C6.80 9.48 7.56 8.48 8.44 8.48C9.35 8.48 9.59 9.30 9.60 10.72L9.60 14.35C9.60 14.88 10.01 15.22 10.54 15.22C10.95 15.22 11.26 15.05 11.49 14.84C11.27 14.29 11.24 13.58 11.23 13.13ZM15.18 7.84L14.99 7.84C15.02 7.27 15.09 6.80 15.22 6.33C15.08 6.20 14.77 5.96 14.29 5.96C13.75 5.96 13.34 6.29 13.34 6.82L13.34 7.84L12.75 7.84C12.52 7.84 12.32 7.97 12.31 8.25L12.29 8.65C12.47 8.62 12.95 8.60 13.13 8.60L13.34 8.60L13.34 13.33C13.34 14.46 13.93 15.16 14.98 15.16C15.83 15.16 16.39 14.80 16.39 14.27C16.39 14.11 16.34 13.90 16.21 13.72C16.13 13.87 15.83 13.94 15.62 13.94C15.19 13.94 14.98 13.68 14.98 13.19L14.98 9.06L14.98 8.60L16.27 8.60C16.49 8.60 16.67 8.46 16.69 8.19L16.70 7.78C16.56 7.81 15.32 7.84 15.18 7.84ZM23.21 13.06C22.90 13.72 22.19 14.17 21.17 14.17C19.98 14.17 19.17 13.57 19.04 11.79C19.53 11.84 19.99 11.86 20.45 11.86C22.30 11.86 23.52 11.12 23.52 9.73C23.52 8.34 22.32 7.64 20.75 7.64C18.48 7.64 17.26 9.09 17.26 11.42C17.26 13.86 18.61 15.22 20.72 15.22C21.99 15.22 22.97 14.73 23.32 13.83C23.53 13.34 23.39 13.15 23.21 13.06ZM20.69 8.23C21.22 8.23 21.76 8.48 21.76 9.46C21.76 11.03 20.57 11.24 19.57 11.23C19.38 11.23 19.18 11.21 19.01 11.20C19.01 9.32 19.64 8.23 20.69 8.23ZM28.49 7.64C27.58 7.64 26.96 8.15 26.64 9.18C26.59 8.15 26.10 7.64 25.33 7.64C24.67 7.64 24.29 8.01 24.29 8.51C24.29 8.71 24.35 8.88 24.46 9.06C24.56 8.90 24.72 8.88 24.84 8.88C25.07 8.88 25.20 9.07 25.20 9.60L25.20 14.22C25.20 14.83 25.65 15.16 26.15 15.16C26.63 15.16 26.95 14.94 27.10 14.81C26.82 14.13 26.82 13.64 26.82 11.70C26.82 9.44 27.34 8.43 28.03 8.43C28.46 8.43 28.69 8.69 28.69 9.20C28.69 9.56 28.64 9.79 28.43 10.14C28.57 10.30 28.84 10.40 29.18 10.39C29.76 10.37 30.23 9.88 30.23 9.20C30.23 8.22 29.50 7.64 28.49 7.64ZM37.70 13.13L37.70 10.49C37.70 8.60 36.99 7.64 35.45 7.64C34.27 7.64 33.47 8.25 33.10 9.32C33.10 8.19 32.59 7.64 31.78 7.64C31.12 7.64 30.74 8.01 30.74 8.51C30.74 8.71 30.80 8.88 30.91 9.06C31.01 8.90 31.18 8.88 31.29 8.88C31.53 8.88 31.64 9.07 31.65 9.60L31.65 14.27C31.65 14.85 32.06 15.22 32.62 15.22C33.07 15.22 33.40 14.99 33.56 14.85C33.28 14.18 33.28 13.68 33.28 11.70C33.28 9.48 34.03 8.48 34.92 8.48C35.83 8.48 36.06 9.30 36.08 10.72L36.08 14.35C36.08 14.88 36.48 15.22 37.02 15.22C37.42 15.22 37.73 15.05 37.97 14.84C37.74 14.29 37.72 13.58 37.70 13.13ZM45.12 13.06C44.81 13.72 44.10 14.17 43.08 14.17C41.89 14.17 41.08 13.57 40.95 11.79C41.44 11.84 41.90 11.86 42.36 11.86C44.21 11.86 45.43 11.12 45.43 9.73C45.43 8.34 44.23 7.64 42.66 7.64C40.39 7.64 39.17 9.09 39.17 11.42C39.17 13.86 40.52 15.22 42.63 15.22C43.90 15.22 44.88 14.73 45.23 13.83C45.44 13.34 45.30 13.15 45.12 13.06ZM42.60 8.23C43.13 8.23 43.67 8.48 43.67 9.46C43.67 11.03 42.48 11.24 41.48 11.23C41.29 11.23 41.09 11.21 40.92 11.20C40.92 9.32 41.55 8.23 42.60 8.23ZM48.94 7.84L48.76 7.84C48.79 7.27 48.86 6.80 48.99 6.33C48.85 6.20 48.54 5.96 48.06 5.96C47.52 5.96 47.11 6.29 47.11 6.82L47.11 7.84L46.52 7.84C46.28 7.84 46.09 7.97 46.07 8.25L46.06 8.65C46.24 8.62 46.72 8.60 46.90 8.60L47.11 8.60L47.11 13.33C47.11 14.46 47.70 15.16 48.75 15.16C49.60 15.16 50.16 14.80 50.16 14.27C50.16 14.11 50.11 13.90 49.98 13.72C49.90 13.87 49.60 13.94 49.39 13.94C48.96 13.94 48.75 13.68 48.75 13.19L48.75 9.06L48.75 8.60L50.04 8.60C50.26 8.60 50.44 8.46 50.46 8.19L50.47 7.78C50.33 7.81 49.08 7.84 48.94 7.84Z"></path></g><!----><g data-v-423bf9ae="" id="66226620-52dc-48aa-baeb-cc7835c59cc9" transform="matrix(1.002227137432578,0,0,1.002227137432578,97.48863396035388,-5.011135687162891)" stroke="none" fill="black"><path d="M24.6 5v71.1l16.2-15.5 18.4 34.2 11-5.9-17.3-33.3h22.5z"></path></g><!----></svg>