<svg data-v-423bf9ae="" xmlns="http://www.w3.org/2000/svg" viewBox="0 0 106.11403254855405 60" class="font"><!----><!----><!----><g data-v-423bf9ae="" id="cd610a2d-cd9e-4745-be43-6a524d476b61" fill="white" transform="matrix(2.250562653541208,0,0,2.250562653541208,9.840363901503224e-8,0)"><path d="M0.59 0.27L0 0.13L0 0L0 0Q0.17 0.04 0.41 0.07L0.41 0.07L0.41 0.07Q0.60 0.10 0.91 0.11L0.91 0.11L0.91 0.11Q1.22 0.13 1.62 0.13L1.62 0.13L1.62 0.13Q2.10 0.13 2.46 0.11L2.46 0.11L2.46 0.11Q2.81 0.10 3.05 0.07L3.05 0.07L3.05 0.07Q3.33 0.04 3.54 0L3.54 0L3.54 0.13L2.88 0.27L2.88 0.27Q2.86 0.48 2.92 0.97L2.92 0.97L2.92 0.97Q2.98 1.47 3.12 2.16L3.12 2.16L3.12 2.16Q3.25 2.84 3.44 3.68L3.44 3.68L3.44 3.68Q3.63 4.52 3.84 5.41L3.84 5.41L3.84 5.41Q4.06 6.30 4.30 7.20L4.30 7.20L4.30 7.20Q4.55 8.11 4.79 8.93L4.79 8.93L4.79 8.93Q5.03 9.76 5.25 10.46L5.25 10.46L5.25 10.46Q5.47 11.16 5.67 11.63L5.67 11.63L5.67 11.63Q5.91 10.93 6.17 9.95L6.17 9.95L6.17 9.95Q6.44 8.96 6.69 7.86L6.69 7.86L6.69 7.86Q6.93 6.76 7.15 5.61L7.15 5.61L7.15 5.61Q7.38 4.47 7.54 3.44L7.54 3.44L7.54 3.44Q7.70 2.42 7.79 1.59L7.79 1.59L7.79 1.59Q7.88 0.76 7.87 0.27L7.87 0.27L7.14 0.13L7.14 0L7.14 0Q7.35 0.04 7.60 0.07L7.60 0.07L7.60 0.07Q7.81 0.10 8.08 0.11L8.08 0.11L8.08 0.11Q8.34 0.13 8.62 0.13L8.62 0.13L8.62 0.13Q9.03 0.13 9.31 0.11L9.31 0.11L9.31 0.11Q9.59 0.10 9.79 0.07L9.79 0.07L9.79 0.07Q10.01 0.04 10.15 0L10.15 0L10.15 0.13L9.70 0.27L9.70 0.27Q8.72 3.37 7.84 6.09L7.84 6.09L7.84 6.09Q7.46 7.25 7.07 8.44L7.07 8.44L7.07 8.44Q6.68 9.63 6.31 10.70L6.31 10.70L6.31 10.70Q5.94 11.76 5.62 12.63L5.62 12.63L5.62 12.63Q5.31 13.50 5.08 14.01L5.08 14.01L5.08 14.01Q4.86 13.55 4.58 12.74L4.58 12.74L4.58 12.74Q4.30 11.93 3.98 10.91L3.98 10.91L3.98 10.91Q3.67 9.88 3.33 8.72L3.33 8.72L3.33 8.72Q3.00 7.56 2.66 6.41L2.66 6.41L2.66 6.41Q2.32 5.26 2.01 4.20L2.01 4.20L2.01 4.20Q1.69 3.14 1.42 2.30L1.42 2.30L1.42 2.30Q1.15 1.46 0.94 0.91L0.94 0.91L0.94 0.91Q0.73 0.36 0.59 0.27L0.59 0.27ZM12.50 12.49L17.96 12.39L17.96 12.39Q17.84 12.78 17.26 13.38L17.26 13.38L17.26 13.38Q16.69 14.08 16.44 14.08L16.44 14.08L10.15 14.04L10.15 14.04Q12.56 11.20 13.43 9.90L13.43 9.90L13.43 9.90Q15.47 6.90 15.47 4.66L15.47 4.66L15.47 4.66Q15.47 3.43 14.87 2.66L14.87 2.66L14.87 2.66Q14.27 1.89 13.37 1.89L13.37 1.89L13.37 1.89Q12.60 1.89 12.18 2.35L12.18 2.35L12.18 2.35Q11.56 3.00 11.30 3.15L11.30 3.15L11.30 3.15Q11.75 2.06 12.77 1.18L12.77 1.18L12.77 1.18Q13.79 0.31 14.63 0.31L14.63 0.31L14.63 0.31Q15.58 0.31 16.16 1.15L16.16 1.15L16.16 1.15Q16.73 1.99 16.73 3.35L16.73 3.35L16.73 3.35Q16.73 5.32 15.75 7.21L15.75 7.21L15.75 7.21Q15.30 8.05 13.80 10.05L13.80 10.05L13.80 10.05Q12.67 11.52 12.50 12.49L12.50 12.49ZM22.20 7.53L22.20 7.53L22.20 7.53Q22.19 7.57 22.27 7.62L22.27 7.62L22.27 7.62Q22.34 7.64 22.52 7.67L22.52 7.67L22.52 7.67Q22.69 7.70 23.06 7.70L23.06 7.70L23.06 7.70Q23.95 7.70 24.48 7.35L24.48 7.35L24.48 7.35Q25.00 7 25.28 6.47L25.28 6.47L25.28 6.47Q25.56 5.94 25.65 5.29L25.65 5.29L25.65 5.29Q25.73 4.63 25.73 4.05L25.73 4.05L25.73 4.05Q25.73 3.07 25.49 2.35L25.49 2.35L25.49 2.35Q25.26 1.64 24.89 1.18L24.89 1.18L24.89 1.18Q24.51 0.73 24.08 0.51L24.08 0.51L24.08 0.51Q23.65 0.29 23.27 0.29L23.27 0.29L23.27 0.29Q22.93 0.29 22.75 0.35L22.75 0.35L22.75 0.35Q22.57 0.41 22.47 0.48L22.47 0.48L22.47 0.48Q22.36 0.55 22.34 0.64L22.34 0.64L22.34 0.64Q22.29 1.47 22.26 2.37L22.26 2.37L22.26 2.37Q22.23 3.26 22.22 4.15L22.22 4.15L22.22 4.15Q22.20 5.04 22.20 5.90L22.20 5.90L22.20 5.90Q22.20 6.76 22.20 7.53ZM20.85 6.57L20.85 6.57L20.85 6.57Q20.85 5.95 20.82 5.26L20.82 5.26L20.82 5.26Q20.79 4.56 20.75 3.87L20.75 3.87L20.75 3.87Q20.71 3.18 20.65 2.53L20.65 2.53L20.65 2.53Q20.59 1.89 20.52 1.40L20.52 1.40L20.52 1.40Q20.45 0.91 20.38 0.61L20.38 0.61L20.38 0.61Q20.31 0.31 20.26 0.29L20.26 0.29L20.26 0.29Q20.12 0.27 19.97 0.24L19.97 0.24L19.97 0.24Q19.82 0.22 19.68 0.20L19.68 0.20L19.68 0.20Q19.53 0.17 19.36 0.14L19.36 0.14L19.36 0.01L19.36 0.01Q19.61 0.06 19.91 0.08L19.91 0.08L19.91 0.08Q20.16 0.11 20.49 0.13L20.49 0.13L20.49 0.13Q20.82 0.14 21.18 0.14L21.18 0.14L21.18 0.14Q21.53 0.14 21.82 0.12L21.82 0.12L21.82 0.12Q22.11 0.10 22.41 0.08L22.41 0.08L22.41 0.08Q22.72 0.06 23.11 0.04L23.11 0.04L23.11 0.04Q23.49 0.01 24.04 0.01L24.04 0.01L24.04 0.01Q24.89 0.01 25.58 0.34L25.58 0.34L25.58 0.34Q26.26 0.67 26.75 1.20L26.75 1.20L26.75 1.20Q27.23 1.72 27.48 2.36L27.48 2.36L27.48 2.36Q27.73 3.00 27.73 3.63L27.73 3.63L27.73 3.63Q27.73 4.21 27.59 4.70L27.59 4.70L27.59 4.70Q27.45 5.18 27.23 5.56L27.23 5.56L27.23 5.56Q27.01 5.95 26.71 6.25L26.71 6.25L26.71 6.25Q26.42 6.55 26.12 6.78L26.12 6.78L26.12 6.78Q25.41 7.31 24.51 7.57L24.51 7.57L24.51 7.57Q25.26 7.57 25.81 8.04L25.81 8.04L25.81 8.04Q26.36 8.50 26.80 9.19L26.80 9.19L26.80 9.19Q27.23 9.88 27.60 10.70L27.60 10.70L27.60 10.70Q27.97 11.52 28.34 12.24L28.34 12.24L28.34 12.24Q28.71 12.95 29.14 13.45L29.14 13.45L29.14 13.45Q29.57 13.94 30.14 14L30.14 14L30.14 14Q29.23 14 28.60 13.87L28.60 13.87L28.60 13.87Q27.96 13.73 27.52 13.49L27.52 13.49L27.52 13.49Q27.08 13.24 26.78 12.90L26.78 12.90L26.78 12.90Q26.47 12.56 26.24 12.14L26.24 12.14L26.24 12.14Q26.00 11.73 25.77 11.26L25.77 11.26L25.77 11.26Q25.55 10.79 25.24 10.29L25.24 10.29L25.24 10.29Q24.75 9.48 24.47 8.99L24.47 8.99L24.47 8.99Q24.19 8.50 23.92 8.25L23.92 8.25L23.92 8.25Q23.65 7.99 23.27 7.92L23.27 7.92L23.27 7.92Q22.89 7.84 22.20 7.84L22.20 7.84L22.20 7.84Q22.20 8.72 22.27 9.76L22.27 9.76L22.27 9.76Q22.34 10.79 22.43 11.68L22.43 11.68L22.43 11.68Q22.53 12.71 22.67 13.73L22.67 13.73L23.62 13.86L23.62 14L23.06 13.93L23.06 13.93Q22.81 13.90 22.46 13.88L22.46 13.88L22.46 13.88Q22.12 13.86 21.74 13.86L21.74 13.86L21.74 13.86Q21.24 13.86 20.86 13.88L20.86 13.88L20.86 13.88Q20.48 13.90 20.23 13.93L20.23 13.93L20.23 13.93Q19.94 13.97 19.74 14L19.74 14L19.74 13.90L19.74 13.90Q19.87 13.87 20.01 13.85L20.01 13.85L20.01 13.85Q20.12 13.82 20.26 13.79L20.26 13.79L20.26 13.79Q20.40 13.76 20.55 13.73L20.55 13.73L20.55 13.73Q20.78 13.71 20.81 11.97L20.81 11.97L20.81 11.97Q20.85 10.23 20.85 6.57ZM36.09 9.52L36.09 9.52L36.09 9.52Q36.20 9.79 36.41 10.30L36.41 10.30L36.41 10.30Q36.62 10.82 36.86 11.35L36.86 11.35L36.86 11.35Q37.09 11.89 37.31 12.29L37.31 12.29L37.31 12.29Q37.53 12.70 37.69 12.73L37.69 12.73L37.69 12.73Q37.27 12.96 36.81 13.30L36.81 13.30L36.81 13.30Q36.36 13.64 36.02 14L36.02 14L36.02 14Q35.95 13.69 35.77 13.14L35.77 13.14L35.77 13.14Q35.59 12.59 35.28 11.93L35.28 11.93L35.28 11.93Q35.01 12.19 34.61 12.55L34.61 12.55L34.61 12.55Q34.20 12.91 33.74 13.23L33.74 13.23L33.74 13.23Q33.28 13.55 32.78 13.78L32.78 13.78L32.78 13.78Q32.28 14 31.84 14L31.84 14L31.84 14Q31.51 14 31.17 13.91L31.17 13.91L31.17 13.91Q30.83 13.82 30.55 13.64L30.55 13.64L30.55 13.64Q30.27 13.47 30.09 13.22L30.09 13.22L30.09 13.22Q29.92 12.96 29.92 12.64L29.92 12.64L29.92 12.64Q29.92 12.25 30.32 11.80L30.32 11.80L30.32 11.80Q30.73 11.35 31.33 10.91L31.33 10.91L31.33 10.91Q31.93 10.47 32.63 10.05L32.63 10.05L32.63 10.05Q33.33 9.63 33.92 9.27L33.92 9.27L33.92 9.27Q33.49 8.72 33.10 8.48L33.10 8.48L33.10 8.48Q32.72 8.23 32.26 8.23L32.26 8.23L32.26 8.23Q32.06 8.23 31.75 8.34L31.75 8.34L31.75 8.34Q31.43 8.46 31.14 8.60L31.14 8.60L31.14 8.60Q30.77 8.75 30.41 8.95L30.41 8.95L30.41 8.95Q31.19 8.41 31.92 7.98L31.92 7.98L31.92 7.98Q32.23 7.80 32.55 7.63L32.55 7.63L32.55 7.63Q32.87 7.46 33.17 7.32L33.17 7.32L33.17 7.32Q33.47 7.18 33.73 7.10L33.73 7.10L33.73 7.10Q33.99 7.01 34.17 7.01L34.17 7.01L34.17 7.01Q34.52 7.01 34.83 7.31L34.83 7.31L34.83 7.31Q35.13 7.62 35.37 8.03L35.37 8.03L35.37 8.03Q35.62 8.44 35.79 8.86L35.79 8.86L35.79 8.86Q35.97 9.28 36.09 9.52ZM33.35 12.64L33.35 12.64L33.35 12.64Q33.68 12.64 33.99 12.54L33.99 12.54L33.99 12.54Q34.30 12.45 34.53 12.26L34.53 12.26L34.53 12.26Q34.76 12.08 34.90 11.83L34.90 11.83L34.90 11.83Q35.04 11.58 35.04 11.28L35.04 11.28L35.04 11.28Q34.93 11.10 34.80 10.88L34.80 10.88L34.80 10.88Q34.68 10.67 34.57 10.47L34.57 10.47L34.57 10.47Q34.45 10.22 34.34 9.99L34.34 9.99L34.34 9.99Q34.22 9.76 34.09 9.60L34.09 9.60L34.09 9.60Q33.78 9.72 33.34 9.92L33.34 9.92L33.34 9.92Q32.90 10.12 32.49 10.39L32.49 10.39L32.49 10.39Q32.09 10.67 31.80 10.99L31.80 10.99L31.80 10.99Q31.51 11.31 31.51 11.66L31.51 11.66L31.51 11.66Q31.51 11.86 31.66 12.03L31.66 12.03L31.66 12.03Q31.81 12.21 32.05 12.34L32.05 12.34L32.05 12.34Q32.30 12.47 32.63 12.56L32.63 12.56L32.63 12.56Q32.97 12.64 33.35 12.64ZM44.10 7.88L44.10 7.88L44.10 7.88Q44.69 7.69 45.25 7.52L45.25 7.52L45.25 7.52Q45.74 7.36 46.26 7.23L46.26 7.23L46.26 7.23Q46.77 7.10 47.15 7.03L47.15 7.03L47.15 7.03Q46.16 8.64 45.26 10.34L45.26 10.34L45.26 10.34Q44.37 12.04 43.57 13.72L43.57 13.72L43.57 13.72Q42.77 15.40 42.07 17.01L42.07 17.01L42.07 17.01Q41.37 18.62 40.80 20.06L40.80 20.06L40.80 20.06Q39.44 23.44 38.39 26.66L38.39 26.66L38.39 26.66Q39.23 23.86 40.00 21.38L40.00 21.38L40.00 21.38Q40.32 20.33 40.66 19.24L40.66 19.24L40.66 19.24Q41.01 18.14 41.32 17.15L41.32 17.15L41.32 17.15Q41.64 16.16 41.92 15.34L41.92 15.34L41.92 15.34Q42.20 14.52 42.39 13.99L42.39 13.99L42.39 13.99Q42.13 13.47 41.80 12.86L41.80 12.86L41.80 12.86Q41.48 12.25 41.14 11.65L41.14 11.65L41.14 11.65Q40.80 11.05 40.45 10.49L40.45 10.49L40.45 10.49Q40.11 9.93 39.81 9.50L39.81 9.50L39.81 9.50Q39.51 9.07 39.27 8.81L39.27 8.81L39.27 8.81Q39.03 8.55 38.91 8.55L38.91 8.55L38.91 8.55Q38.81 8.55 38.72 8.57L38.72 8.57L38.72 8.57Q38.63 8.58 38.56 8.61L38.56 8.61L38.56 8.61Q38.47 8.64 38.39 8.65L38.39 8.65L38.39 8.65Q38.56 8.40 38.78 8.10L38.78 8.10L38.78 8.10Q39.00 7.80 39.24 7.54L39.24 7.54L39.24 7.54Q39.48 7.28 39.70 7.10L39.70 7.10L39.70 7.10Q39.91 6.93 40.05 6.93L40.05 6.93L40.05 6.93Q40.22 6.93 40.52 7.29L40.52 7.29L40.52 7.29Q40.81 7.64 41.23 8.33L41.23 8.33L41.23 8.33Q41.65 9.02 42.18 10.01L42.18 10.01L42.18 10.01Q42.71 11.00 43.34 12.26L43.34 12.26L43.34 12.26Q43.74 11.51 44.11 10.77L44.11 10.77L44.11 10.77Q44.48 10.04 44.72 9.44L44.72 9.44L44.72 9.44Q44.95 8.85 45.00 8.45L45.00 8.45L45.00 8.45Q45.04 8.05 44.77 7.98L44.77 7.98L44.77 7.98Q44.66 7.95 44.54 7.93L44.54 7.93L44.54 7.93Q44.42 7.91 44.32 7.90L44.32 7.90L44.32 7.90Q44.20 7.88 44.10 7.88Z"></path></g><!----><!----></svg>