<svg data-v-423bf9ae="" xmlns="http://www.w3.org/2000/svg" viewBox="0 0 279.790591078401 163" class="iconAbove"><!----><!----><!----><g data-v-423bf9ae="" id="3470068c-8294-45cd-a7c7-a4cca45fbfeb" fill="#202A4F" transform="matrix(5.235602512507614,0,0,5.235602512507614,1.8324638267819182,89.12565522673465)"><path d="M5.60 4.07L5.60 4.07L5.60 4.07Q6.22 4.80 6.22 4.94L6.22 4.94L6.22 4.94Q6.22 5.08 6.08 5.25L6.08 5.25L6.08 5.25Q5.42 5.99 4.54 6.75L4.54 6.75L4.54 6.75Q4.34 6.92 4.24 6.92L4.24 6.92L4.24 6.92Q4.10 6.92 4.10 6.70L4.10 6.70L4.10 6.70Q4.10 6.48 4.29 6.12L4.29 6.12L4.29 6.12Q4.48 5.75 4.48 5.70L4.48 5.70L4.48 5.70Q4.48 5.64 4.43 5.64L4.43 5.64L4.43 5.64Q4.38 5.64 4.30 5.67L4.30 5.67L4.30 5.67Q2.69 6.24 2.06 7.48L2.06 7.48L2.06 7.48Q1.92 7.76 1.92 7.94L1.92 7.94L1.92 7.94Q1.92 8.30 2.48 8.62L2.48 8.62L2.48 8.62Q2.56 8.68 3.23 9.03L3.23 9.03L3.23 9.03Q4.59 9.76 4.94 10.21L4.94 10.21L4.94 10.21Q5.50 10.91 5.50 11.58L5.50 11.58L5.50 11.58Q5.50 11.84 5.36 12.13L5.36 12.13L5.36 12.13Q5.21 12.42 4.98 12.56L4.98 12.56L4.98 12.56Q2.62 14.03 0.77 14.03L0.77 14.03L0.77 14.03Q-0.21 14.03-0.21 13.13L-0.21 13.13L-0.21 13.13Q-0.21 12.84-0.01 12.57L-0.01 12.57L-0.01 12.57Q-0.35 12.33-0.35 12.06L-0.35 12.06L-0.35 12.06Q-0.35 11.79 0.03 11.51L0.03 11.51L0.03 11.51Q0.92 10.84 2.91 10.84L2.91 10.84L2.91 10.84Q3.12 10.84 3.42 10.98L3.42 10.98L3.42 10.98Q3.71 11.13 3.89 11.30L3.89 11.30L3.89 11.30Q4.24 11.10 4.24 10.95L4.24 10.95L4.24 10.95Q4.24 10.79 4.06 10.64L4.06 10.64L4.06 10.64Q3.79 10.44 3.07 10.12L3.07 10.12L3.07 10.12Q2.35 9.80 2.16 9.69L2.16 9.69L2.16 9.69Q1.57 9.35 1.25 8.72L1.25 8.72L1.25 8.72Q0.94 8.09 0.94 7.38L0.94 7.38L0.94 7.38Q0.94 6.68 1.29 6.10L1.29 6.10L1.29 6.10Q1.65 5.52 2.30 5.08L2.30 5.08L2.30 5.08Q3.28 4.42 4.75 3.88L4.75 3.88L4.75 3.88Q4.94 3.82 5.05 3.82L5.05 3.82L5.05 3.82Q5.38 3.82 5.60 4.07ZM2.94 11.83L2.94 11.83L2.94 11.83Q2.80 11.80 2.62 11.80L2.62 11.80L2.62 11.80Q2.44 11.80 1.91 11.97L1.91 11.97L1.91 11.97Q1.39 12.14 1.39 12.35L1.39 12.35L1.39 12.35Q1.39 12.43 1.48 12.43L1.48 12.43L1.48 12.43Q1.86 12.43 2.94 11.83ZM10.63 11.77L10.63 11.77L10.63 11.77Q10.63 12.88 10.22 13.47L10.22 13.47L10.22 13.47Q9.91 13.86 9.69 13.86L9.69 13.86L9.69 13.86Q9.46 13.86 9.24 13.64L9.24 13.64L9.24 13.64Q8.46 12.73 8.46 11.45L8.46 11.45L8.46 11.45Q8.46 11.03 8.55 10.58L8.55 10.58L8.55 10.58Q8.72 9.81 8.72 9.59L8.72 9.59L8.72 9.59Q8.72 9.37 8.69 9.37L8.69 9.37L8.69 9.37Q8.61 9.37 7.59 13.22L7.59 13.22L7.59 13.22Q7.46 13.61 7.32 13.61L7.32 13.61L7.32 13.61Q6.94 13.61 6.43 12.31L6.43 12.31L6.43 12.31Q6.15 11.69 6.15 10.82L6.15 10.82L6.15 10.82Q6.15 9.84 6.27 9.17L6.27 9.17L6.27 9.17Q6.38 8.50 6.41 8.34L6.41 8.34L6.41 8.34Q6.44 8.18 6.52 7.82L6.52 7.82L6.52 7.82Q6.59 7.46 6.62 7.35L6.62 7.35L6.62 7.35Q6.79 6.65 6.85 6.36L6.85 6.36L6.85 6.36Q6.50 6.36 6.50 6.15L6.50 6.15L6.50 6.15Q6.50 6.05 6.58 5.94L6.58 5.94L6.58 5.94Q7.35 4.72 7.67 3.78L7.67 3.78L7.67 3.78Q7.73 3.54 7.90 3.54L7.90 3.54L7.90 3.54Q8.12 3.54 8.23 3.98L8.23 3.98L8.23 3.98Q8.34 4.41 8.34 4.73L8.34 4.73L8.34 4.73Q8.34 5.54 7.81 6.03L7.81 6.03L7.81 6.03Q7.18 9.94 7.18 10.14L7.18 10.14L7.18 10.14Q7.18 10.33 7.24 10.33L7.24 10.33L7.24 10.33Q7.29 10.33 7.44 10.07L7.44 10.07L7.44 10.07Q7.59 9.81 7.91 9.08L7.91 9.08L7.91 9.08Q8.23 8.34 8.44 7.99L8.44 7.99L8.44 7.99Q8.75 7.48 9.23 7.48L9.23 7.48L9.23 7.48Q9.98 7.48 9.98 8.89L9.98 8.89L9.98 8.89Q9.98 10.04 9.45 11.79L9.45 11.79L9.45 11.79Q9.44 11.84 9.44 11.90L9.44 11.90L9.44 11.90Q9.44 12.05 9.58 12.05L9.58 12.05L9.58 12.05Q9.73 12.05 10.10 11.65L10.10 11.65L10.10 11.65Q10.47 11.24 10.55 11.24L10.55 11.24L10.55 11.24Q10.63 11.24 10.63 11.77ZM14.04 11.89L14.04 11.89L14.04 11.89Q12.89 13.94 12.29 13.94L12.29 13.94L12.29 13.94Q11.86 13.94 11.51 13.41L11.51 13.41L11.51 13.41Q11.41 13.27 11.30 12.97L11.30 12.97L11.30 12.97Q11.19 12.67 11.03 12.42L11.03 12.42L11.03 12.42Q10.86 12.17 10.86 11.74L10.86 11.74L10.86 11.74Q10.86 11.31 11.03 10.98L11.03 10.98L11.03 10.98Q12.18 8.71 13.45 7.87L13.45 7.87L13.45 7.87Q13.62 7.74 13.85 7.74L13.85 7.74L13.85 7.74Q14.07 7.74 14.41 7.99L14.41 7.99L14.41 7.99Q14.60 8.19 14.64 8.33L14.64 8.33L14.64 8.33Q14.71 8.64 14.71 8.71L14.71 8.71L14.71 8.71Q15.20 8.88 15.20 9.32L15.20 9.32L15.20 9.32Q15.20 9.63 15.04 10.72L15.04 10.72L15.04 10.72Q14.87 11.80 14.84 12.33L14.84 12.33L14.84 12.33Q14.84 12.63 15.04 12.63L15.04 12.63L15.04 12.63Q15.26 12.63 15.84 11.84L15.84 11.84L15.84 11.84Q16.42 11.06 16.51 11.06L16.51 11.06L16.51 11.06Q16.65 11.06 16.65 11.52L16.65 11.52L16.62 12.21L16.62 12.21Q16.62 12.60 16.27 13.28L16.27 13.28L16.27 13.28Q15.92 13.96 15.37 13.96L15.37 13.96L15.37 13.96Q15.04 13.96 14.84 13.73L14.84 13.73L14.84 13.73Q14.77 13.66 14.63 13.45L14.63 13.45L14.63 13.45Q14.20 12.82 14.04 11.89ZM14.17 8.65L14.17 8.65L14.17 8.65Q12.40 10.26 11.93 12.33L11.93 12.33L11.93 12.33Q13.34 11.12 14.17 8.65ZM22.02 11.14L21.92 11.75L21.97 12.47L21.97 12.47Q21.97 13.24 21.56 13.24L21.56 13.24L21.56 13.24Q21.24 13.24 21 12.91L21 12.91L21 12.91Q20.76 12.57 20.64 12.30L20.64 12.30L20.64 12.30Q20.51 12.03 20.38 11.78L20.38 11.78L20.38 11.78Q20.26 11.54 20.16 11.20L20.16 11.20L20.16 11.20Q20.15 11.24 20.08 11.49L20.08 11.49L19.96 11.87L19.96 11.87Q19.80 12.49 19.71 12.69L19.71 12.69L19.71 12.69Q19.61 12.89 19.51 13.14L19.51 13.14L19.51 13.14Q19.40 13.38 19.29 13.53L19.29 13.53L19.29 13.53Q19.18 13.68 19.05 13.82L19.05 13.82L19.05 13.82Q18.80 14.11 18.45 14.11L18.45 14.11L18.45 14.11Q18.09 14.11 17.75 13.71L17.75 13.71L17.75 13.71Q17.18 13.03 16.91 12.03L16.91 12.03L16.91 12.03Q16.79 11.61 16.79 11.06L16.79 11.06L16.79 11.06Q16.79 10.51 17.12 9.85L17.12 9.85L17.12 9.85Q17.46 9.18 18.13 8.39L18.13 8.39L18.13 8.39Q18.80 7.59 19.38 7.59L19.38 7.59L19.38 7.59Q19.68 7.59 20.08 7.88L20.08 7.88L20.08 7.88Q20.16 7.13 20.36 5.74L20.36 5.74L20.36 5.74Q20.55 4.35 20.59 3.93L20.59 3.93L20.59 3.93Q20.64 3.50 20.89 3.50L20.89 3.50L20.89 3.50Q21.15 3.50 21.27 3.77L21.27 3.77L21.27 3.77Q21.39 4.05 21.39 4.31L21.39 4.31L21.39 4.31Q21.39 4.58 21.35 4.80L21.35 4.80L21.35 4.80Q20.96 8.81 20.96 11.31L20.96 11.31L20.96 11.31Q20.96 11.69 21.17 11.69L21.17 11.69L21.17 11.69Q21.38 11.69 21.62 11.36L21.62 11.36L21.62 11.36Q21.87 11.03 21.95 11.03L21.95 11.03L21.95 11.03Q22.02 11.03 22.02 11.14L22.02 11.14ZM19.71 9.07L19.71 9.07L19.71 9.07Q19.71 8.90 19.55 8.90L19.55 8.90L19.55 8.90Q19.39 8.90 19.17 9.04L19.17 9.04L19.17 9.04Q18.44 9.45 17.97 10.30L17.97 10.30L17.97 10.30Q17.50 11.16 17.50 12.01L17.50 12.01L17.50 12.01Q17.50 12.53 17.82 12.53L17.82 12.53L17.82 12.53Q17.95 12.53 18.10 12.38L18.10 12.38L18.10 12.38Q18.89 11.55 19.66 9.32L19.66 9.32L19.66 9.32Q19.71 9.18 19.71 9.07ZM25.55 10.43L25.55 10.43L25.55 10.43Q25.55 12.12 24.57 13.44L24.57 13.44L24.57 13.44Q24.22 13.89 23.79 13.89L23.79 13.89L23.79 13.89Q23.37 13.89 23.11 13.68L23.11 13.68L23.11 13.68Q22.20 12.92 22.20 11.09L22.20 11.09L22.20 11.09Q22.20 9.81 22.89 7.84L22.89 7.84L22.89 7.84Q22.95 7.70 22.99 7.67L22.99 7.67L22.99 7.67Q23.03 7.63 23.14 7.63L23.14 7.63L23.14 7.63Q23.24 7.63 23.39 7.48L23.39 7.48L23.39 7.48Q23.55 7.34 23.91 7.34L23.91 7.34L23.91 7.34Q24.26 7.34 24.63 7.60L24.63 7.60L24.63 7.60Q24.99 7.87 25.16 8.32L25.16 8.32L25.16 8.32Q25.55 9.37 25.55 10.43ZM24.39 9.52L24.39 9.52L24.39 9.52Q24.39 8.23 24.07 8.23L24.07 8.23L24.07 8.23Q23.91 8.23 23.79 8.47L23.79 8.47L23.79 8.47Q23.23 9.80 23.23 11.65L23.23 11.65L23.23 11.65Q23.23 12.11 23.24 12.35L23.24 12.35L23.24 12.35Q24.39 11.47 24.39 9.52ZM28.80 9.21L28.80 9.21L28.80 9.21Q28.92 9.21 29.01 9.21L29.01 9.21L29.01 9.21Q29.09 9.21 29.18 9.22L29.18 9.22L29.18 9.22Q29.26 9.23 29.30 9.23L29.30 9.23L29.30 9.23Q29.34 9.24 29.41 9.26L29.41 9.26L29.41 9.26Q29.47 9.28 29.50 9.32L29.50 9.32L29.50 9.32Q29.53 9.35 29.55 9.39L29.55 9.39L29.55 9.39Q29.62 9.46 29.62 9.58L29.62 9.58L29.62 9.58Q29.62 9.69 29.55 10.35L29.55 10.35L29.55 10.35Q29.48 11.00 29.48 11.40L29.48 11.40L29.48 11.40Q29.48 12.52 29.64 12.52L29.64 12.52L29.64 12.52Q29.69 12.52 29.78 12.35L29.78 12.35L29.78 12.35Q30.20 11.49 30.20 10.02L30.20 10.02L30.20 10.02Q30.20 8.58 30.07 8.30L30.07 8.30L30.07 8.30Q29.93 8.02 29.81 7.92L29.81 7.92L29.81 7.92Q29.68 7.81 29.58 7.73L29.58 7.73L29.58 7.73Q29.47 7.64 29.47 7.60L29.47 7.60L29.47 7.60Q29.47 7.46 29.71 7.46L29.71 7.46L29.92 7.46L29.92 7.46Q30.23 7.48 30.44 7.92L30.44 7.92L30.44 7.92Q31.30 9.76 31.30 11.42L31.30 11.42L31.30 11.42Q31.30 12.19 31.14 12.82L31.14 12.82L31.14 12.82Q30.81 13.99 30.02 13.99L30.02 13.99L30.02 13.99Q29.71 13.99 29.37 13.74L29.37 13.74L29.37 13.74Q29.04 13.50 28.86 13.10L28.86 13.10L28.86 13.10Q28.69 12.71 28.57 12.08L28.57 12.08L28.57 12.08Q28.42 12.59 28.07 13.21L28.07 13.21L28.07 13.21Q27.72 13.83 27.41 13.83L27.41 13.83L27.41 13.83Q27.30 13.83 27.19 13.75L27.19 13.75L27.19 13.75Q26.32 13.10 26.32 11.48L26.32 11.48L26.32 11.48Q26.32 10.60 26.56 9.84L26.56 9.84L26.56 9.84Q26.64 9.60 26.88 8.96L26.88 8.96L26.88 8.96Q26.35 9.31 26.10 9.31L26.10 9.31L26.10 9.31Q25.86 9.31 25.72 9.00L25.72 9.00L25.72 9.00Q25.52 8.58 25.52 7.88L25.52 7.88L25.52 7.88Q25.52 7.71 25.66 7.71L25.66 7.71L25.86 7.74L25.86 7.74Q26.00 7.74 26.46 7.52L26.46 7.52L26.46 7.52Q26.92 7.29 27.09 7.29L27.09 7.29L27.09 7.29Q27.48 7.29 27.73 7.78L27.73 7.78L27.73 7.78Q27.99 8.26 27.99 8.57L27.99 8.57L27.99 8.57Q27.99 8.89 27.92 9.22L27.92 9.22L27.92 9.22Q27.85 9.55 27.58 10.51L27.58 10.51L27.58 10.51Q27.20 11.90 27.20 12.06L27.20 12.06L27.20 12.06Q27.20 12.22 27.26 12.22L27.26 12.22L27.26 12.22Q27.31 12.22 27.41 12.08L27.41 12.08L27.41 12.08Q27.97 11.21 28.39 9.55L28.39 9.55L28.39 9.55Q28.48 9.21 28.80 9.21ZM34.69 7.43L34.69 7.43L34.69 7.43Q35.06 7.43 35.56 7.72L35.56 7.72L35.56 7.72Q36.06 8.01 36.06 8.39L36.06 8.39L36.06 8.39Q36.06 8.78 35.76 9.09L35.76 9.09L35.76 9.09Q35.46 9.39 35.08 9.39L35.08 9.39L35.08 9.39Q34.51 9.39 34.29 8.86L34.29 8.86L34.29 8.86Q34.26 8.78 34.20 8.78L34.20 8.78L34.20 8.78Q34.13 8.78 33.73 8.95L33.73 8.95L33.73 8.95Q33.33 9.11 33.19 9.18L33.19 9.18L33.19 9.18Q33.05 9.25 33.05 9.32L33.05 9.32L33.05 9.32Q33.05 9.38 33.25 9.48L33.25 9.48L33.25 9.48Q35.74 10.15 35.74 11.54L35.74 11.54L35.74 11.54Q35.74 12.03 35.36 12.55L35.36 12.55L35.36 12.55Q34.97 13.08 34.27 13.41L34.27 13.41L34.27 13.41Q33.57 13.75 32.93 13.75L32.93 13.75L32.93 13.75Q32.28 13.75 32.03 13.40L32.03 13.40L32.03 13.40Q31.77 13.05 31.77 12.39L31.77 12.39L31.77 12.39Q31.77 11.73 32.23 11.41L32.23 11.41L32.23 11.41Q32.84 11.00 33.24 11.00L33.24 11.00L33.24 11.00Q33.33 11.00 33.33 11.05L33.33 11.05L33.33 11.05Q33.33 11.10 33.12 11.23L33.12 11.23L33.12 11.23Q32.90 11.35 32.66 11.59L32.66 11.59L32.66 11.59Q32.41 11.83 32.41 11.98L32.41 11.98L32.41 11.98Q32.41 12.12 32.75 12.12L32.75 12.12L32.75 12.12Q33.64 12.12 34.51 11.62L34.51 11.62L34.51 11.62Q34.71 11.52 34.71 11.39L34.71 11.39L34.71 11.39Q34.71 11.26 34.41 11.12L34.41 11.12L34.41 11.12Q34.12 10.98 33.43 10.71L33.43 10.71L33.43 10.71Q32.73 10.44 32.33 10.25L32.33 10.25L32.33 10.25Q31.93 10.07 31.93 9.63L31.93 9.63L31.93 9.63Q31.93 9.51 32.00 9.27L32.00 9.27L32.00 9.27Q32.06 9.04 32.07 8.96L32.07 8.96L32.07 8.96Q32.14 8.47 32.52 8.29L32.52 8.29L32.52 8.29Q32.89 8.11 34.12 7.53L34.12 7.53L34.12 7.53Q34.33 7.43 34.69 7.43ZM39.66 10.43L39.66 10.43L39.66 10.43Q39.66 12.12 38.68 13.44L38.68 13.44L38.68 13.44Q38.33 13.89 37.91 13.89L37.91 13.89L37.91 13.89Q37.48 13.89 37.23 13.68L37.23 13.68L37.23 13.68Q36.32 12.92 36.32 11.09L36.32 11.09L36.32 11.09Q36.32 9.81 37.00 7.84L37.00 7.84L37.00 7.84Q37.06 7.70 37.10 7.67L37.10 7.67L37.10 7.67Q37.14 7.63 37.25 7.63L37.25 7.63L37.25 7.63Q37.35 7.63 37.51 7.48L37.51 7.48L37.51 7.48Q37.66 7.34 38.02 7.34L38.02 7.34L38.02 7.34Q38.37 7.34 38.74 7.60L38.74 7.60L38.74 7.60Q39.10 7.87 39.27 8.32L39.27 8.32L39.27 8.32Q39.66 9.37 39.66 10.43ZM38.50 9.52L38.50 9.52L38.50 9.52Q38.50 8.23 38.18 8.23L38.18 8.23L38.18 8.23Q38.02 8.23 37.90 8.47L37.90 8.47L37.90 8.47Q37.34 9.80 37.34 11.65L37.34 11.65L37.34 11.65Q37.34 12.11 37.35 12.35L37.35 12.35L37.35 12.35Q38.50 11.47 38.50 9.52ZM43.68 11.47L43.68 11.47L43.68 11.47Q43.68 12.36 43.11 13.20L43.11 13.20L43.11 13.20Q42.53 14.04 41.65 14.04L41.65 14.04L41.65 14.04Q40.95 14.04 40.54 13.20L40.54 13.20L40.54 13.20Q40.12 12.35 40.12 11.40L40.12 11.40L40.12 11.40Q40.12 10.46 40.64 9.34L40.64 9.34L40.64 9.34Q41.15 8.22 41.97 7.55L41.97 7.55L41.97 7.55Q42.15 7.38 42.43 7.38L42.43 7.38L42.43 7.38Q42.71 7.38 43.09 7.70L43.09 7.70L43.09 7.70Q43.29 7.88 43.29 8.46L43.29 8.46L43.29 8.46Q43.29 9.03 42.95 10.25L42.95 10.25L42.95 10.25Q42.87 10.56 42.73 10.56L42.73 10.56L42.73 10.56Q42.46 10.56 42.32 9.06L42.32 9.06L42.32 9.06Q42.31 8.82 42.29 8.76L42.29 8.76L42.29 8.76Q41.61 9.52 41.22 10.48L41.22 10.48L41.22 10.48Q40.84 11.44 40.84 12.33L40.84 12.33L40.84 12.33Q40.84 12.80 41.15 12.80L41.15 12.80L41.15 12.80Q41.68 12.80 42.83 11.84L42.83 11.84L42.83 11.84Q43.04 11.66 43.13 11.57L43.13 11.57L43.13 11.57Q43.23 11.48 43.43 11.30L43.43 11.30L43.43 11.30Q43.62 11.13 43.65 11.10L43.65 11.10L43.65 11.10Q43.68 11.23 43.68 11.47ZM47.87 12.49L48.02 12.50L48.02 12.50Q48.30 12.50 48.27 12.99L48.27 12.99L48.27 12.99Q48.27 13.15 48.30 13.23L48.30 13.23L48.30 13.23Q48.33 13.31 48.33 13.38L48.33 13.38L48.33 13.38Q48.33 13.61 48.03 13.72L48.03 13.72L48.03 13.72Q47.73 13.83 47.36 13.83L47.36 13.83L47.36 13.83Q47.00 13.83 46.60 13.40L46.60 13.40L46.60 13.40Q46.20 12.98 45.18 11.47L45.18 11.47L45.18 11.82L45.18 11.82Q45.18 12.50 45.24 12.85L45.24 12.85L45.24 12.85Q45.30 13.20 45.30 13.29L45.30 13.29L45.30 13.29Q45.30 13.75 44.77 13.75L44.77 13.75L44.77 13.75Q44.49 13.75 44.39 13.53L44.39 13.53L44.39 13.53Q44.28 13.31 44.17 12.85L44.17 12.85L44.17 12.85Q44.06 12.39 44.06 12.19L44.06 12.19L44.06 12.19Q44.06 12.00 44.12 11.63L44.12 11.63L44.12 11.63Q44.18 11.26 44.21 11.04L44.21 11.04L44.21 11.04Q44.23 10.82 44.27 10.30L44.27 10.30L44.27 10.30Q44.46 7.22 45.14 3.22L45.14 3.22L45.14 3.22Q45.08 3.00 45.08 2.82L45.08 2.82L45.08 2.82Q45.08 2.65 45.22 2.65L45.22 2.65L45.22 2.65Q45.36 2.65 45.53 2.84L45.53 2.84L45.53 2.84Q45.77 3.08 45.91 3.54L45.91 3.54L45.91 3.54Q46.05 4.00 46.05 4.28L46.05 4.28L46.05 4.28Q46.05 4.56 45.98 4.96L45.98 4.96L45.98 4.96Q45.92 5.36 45.78 6.15L45.78 6.15L45.78 6.15Q45.47 7.87 45.36 8.79L45.36 8.79L45.36 8.79Q45.39 8.76 45.56 8.60L45.56 8.60L45.56 8.60Q45.72 8.44 45.77 8.40L45.77 8.40L45.77 8.40Q45.81 8.36 45.96 8.22L45.96 8.22L45.96 8.22Q46.12 8.09 46.19 8.05L46.19 8.05L46.19 8.05Q46.27 8.01 46.42 7.92L46.42 7.92L46.42 7.92Q46.56 7.83 46.68 7.80L46.68 7.80L46.68 7.80Q46.94 7.70 47.21 7.70L47.21 7.70L47.21 7.70Q47.82 7.70 48.13 8.15L48.13 8.15L48.13 8.15Q48.44 8.60 48.44 9.25L48.44 9.25L48.44 9.25Q48.44 9.70 48.31 9.93L48.31 9.93L48.31 9.93Q48.19 10.16 48.12 10.28L48.12 10.28L48.12 10.28Q48.05 10.40 47.88 10.54L47.88 10.54L47.63 10.75L47.63 10.75Q47.45 10.91 46.93 11.16L46.93 11.16L46.93 11.16Q46.41 11.41 46.33 11.46L46.33 11.46L46.33 11.46Q46.26 11.51 46.26 11.56L46.26 11.56L46.26 11.56Q46.26 11.61 46.33 11.68L46.33 11.68L46.33 11.68Q47.03 12.38 47.87 12.49L47.87 12.49ZM47.38 8.88L47.38 8.88L47.38 8.88Q46.56 9.24 45.85 10.05L45.85 10.05L45.85 10.05Q46.68 9.80 47.38 8.88ZM51.72 7.43L51.72 7.43L51.72 7.43Q52.08 7.43 52.58 7.72L52.58 7.72L52.58 7.72Q53.09 8.01 53.09 8.39L53.09 8.39L53.09 8.39Q53.09 8.78 52.79 9.09L52.79 9.09L52.79 9.09Q52.49 9.39 52.11 9.39L52.11 9.39L52.11 9.39Q51.53 9.39 51.31 8.86L51.31 8.86L51.31 8.86Q51.28 8.78 51.22 8.78L51.22 8.78L51.22 8.78Q51.16 8.78 50.76 8.95L50.76 8.95L50.76 8.95Q50.36 9.11 50.22 9.18L50.22 9.18L50.22 9.18Q50.08 9.25 50.08 9.32L50.08 9.32L50.08 9.32Q50.08 9.38 50.27 9.48L50.27 9.48L50.27 9.48Q52.77 10.15 52.77 11.54L52.77 11.54L52.77 11.54Q52.77 12.03 52.38 12.55L52.38 12.55L52.38 12.55Q52.00 13.08 51.30 13.41L51.30 13.41L51.30 13.41Q50.60 13.75 49.95 13.75L49.95 13.75L49.95 13.75Q49.31 13.75 49.05 13.40L49.05 13.40L49.05 13.40Q48.79 13.05 48.79 12.39L48.79 12.39L48.79 12.39Q48.79 11.73 49.25 11.41L49.25 11.41L49.25 11.41Q49.87 11.00 50.26 11.00L50.26 11.00L50.26 11.00Q50.36 11.00 50.36 11.05L50.36 11.05L50.36 11.05Q50.36 11.10 50.14 11.23L50.14 11.23L50.14 11.23Q49.92 11.35 49.68 11.59L49.68 11.59L49.68 11.59Q49.43 11.83 49.43 11.98L49.43 11.98L49.43 11.98Q49.43 12.12 49.77 12.12L49.77 12.12L49.77 12.12Q50.67 12.12 51.53 11.62L51.53 11.62L51.53 11.62Q51.73 11.52 51.73 11.39L51.73 11.39L51.73 11.39Q51.73 11.26 51.44 11.12L51.44 11.12L51.44 11.12Q51.14 10.98 50.45 10.71L50.45 10.71L50.45 10.71Q49.76 10.44 49.36 10.25L49.36 10.25L49.36 10.25Q48.96 10.07 48.96 9.63L48.96 9.63L48.96 9.63Q48.96 9.51 49.02 9.27L49.02 9.27L49.02 9.27Q49.08 9.04 49.10 8.96L49.10 8.96L49.10 8.96Q49.17 8.47 49.54 8.29L49.54 8.29L49.54 8.29Q49.91 8.11 51.14 7.53L51.14 7.53L51.14 7.53Q51.35 7.43 51.72 7.43Z"></path></g><defs data-v-423bf9ae=""><linearGradient data-v-423bf9ae="" gradientTransform="rotate(25)" id="0fa08f55-da48-40bd-984a-55a000fa08a7" x1="0%" y1="0%" x2="100%" y2="0%"><stop data-v-423bf9ae="" offset="0%" style="stop-color: rgb(57, 94, 202); stop-opacity: 1;"></stop><stop data-v-423bf9ae="" offset="100%" style="stop-color: rgb(132, 139, 216); stop-opacity: 1;"></stop></linearGradient></defs><g data-v-423bf9ae="" id="0c1b6672-d04f-46d6-bba0-1035dcb2e527" transform="matrix(3.2142857142857144,0,0,3.2142857142857144,75.71428571428571,-19.285714285714292)" stroke="none" fill="url(#0fa08f55-da48-40bd-984a-55a000fa08a7)"><path fill-rule="evenodd" clip-rule="evenodd" d="M34 10.9c.6-.2 1-.8 1-1.4 0-.8-.7-1.5-1.5-1.5S32 8.7 32 9.5c0 .7.4 1.2 1 1.4v5.3c-.1 0-.2-.1-.3-.1C31.3 10.3 26.2 6 20 6 13.8 6 8.7 10.3 7.3 16.1 6 16.4 5 17.6 5 19s1 2.6 2.3 2.9c.5 2 1.4 3.8 2.7 5.4V30s2 4 10 4 10-4 10-4v-2.7c1.3-1.5 2.2-3.4 2.7-5.4C34 21.6 35 20.4 35 19c0-.9-.4-1.7-1-2.2v-5.9zm-2.9 11c-.5 2-1.5 3.7-2.9 5.1-2.1 2.2-5 0-8.2 0-3.2 0-6.2 2.2-8.2 0-1.4-1.4-2.4-3.2-2.9-5.1-.3-1-.4-1.9-.4-2.9s.1-1.9.4-2.9c1.3-5 5.8-6.6 11.1-6.6 5.4 0 9.9 1.7 11.1 6.6.2.9.4 1.9.4 2.9s-.1 1.9-.4 2.9zM20 11.9c-4 0-7.3 1.3-8.3 5-.2.7-.3 1.4-.3 2.1 0 .7.1 1.4.3 2.1l.1.2c2-1.6 5.3-3.4 9.7-3.4-4.2 1.7-6.9 4.1-8.4 6 .3.4.5.7.8 1 .5.5 1.1.7 1.7.7 1.3 0 2.8-.7 4.4-.7 1.6 0 3.1.7 4.4.7.6 0 1.2-.2 1.7-.7 1-1.1 1.8-2.4 2.1-3.8.2-.7.3-1.4.3-2.1 0-.7-.1-1.4-.3-2.1-.9-3.8-4.2-5-8.2-5z"></path></g><!----></svg>