<svg data-v-423bf9ae="" xmlns="http://www.w3.org/2000/svg" viewBox="0 0 261.2571498325893 60" class="font"><!----><!----><!----><g data-v-423bf9ae="" id="1076acf0-8f83-403c-98c5-24b86dcdcbdb" fill="black" transform="matrix(5.714285714285714,0,0,5.714285714285714,-3.1428569810731233,-1.1999991238117218)"><path d="M0.55 7.28C0.70 9.46 2.07 10.71 4.70 10.71C6.58 10.71 8.53 9.73 8.53 7.62C8.53 5.98 7.50 5.14 6.03 4.72C5.07 4.45 3.92 4.13 3.46 3.95C2.95 3.75 2.76 3.47 2.76 3.05C2.76 2.32 3.49 1.92 4.44 1.92C5.64 1.92 6.15 2.51 6.27 3.40L8.20 3.30C8.06 1.20 6.72 0.21 4.38 0.21C2.59 0.21 0.87 1.18 0.87 3.22C0.87 4.17 1.18 5.21 2.95 5.75C3.56 5.95 4.87 6.27 5.40 6.47C6.20 6.75 6.50 7.10 6.50 7.69C6.50 8.57 5.71 9.00 4.65 9.00C3.36 9.00 2.56 8.48 2.45 7.17L0.55 7.28ZM16.48 7.38C16.48 7.34 16.49 6.93 16.49 6.61C16.49 4.27 14.99 3.01 13.05 3.01C11.14 3.01 9.52 4.26 9.52 6.86C9.52 9.46 11.13 10.71 13.05 10.71C14.74 10.71 15.86 9.95 16.37 8.46L14.64 8.09C14.45 8.75 13.89 9.17 13.16 9.17C12.19 9.17 11.44 8.61 11.37 7.38ZM13.01 4.55C13.93 4.55 14.55 5.17 14.60 6.08L11.40 6.08C11.52 5.07 12.26 4.55 13.01 4.55ZM19.54 10.50L19.54 7.06C19.54 5.64 20.15 4.75 21.35 4.75C21.78 4.75 22.08 4.87 22.36 5.03L22.69 3.39C22.36 3.12 21.97 3.01 21.41 3.01C20.40 3.01 19.88 3.50 19.42 4.48L19.42 3.22L17.70 3.22L17.70 10.50ZM27.48 10.50L30.38 3.22L28.53 3.22L26.66 8.26L24.82 3.22L22.95 3.22L25.84 10.50ZM33.18 10.50L33.18 0.21L31.33 0.77L31.33 10.50ZM41.34 7.38C41.34 7.34 41.36 6.93 41.36 6.61C41.36 4.27 39.86 3.01 37.91 3.01C36.01 3.01 34.38 4.26 34.38 6.86C34.38 9.46 35.99 10.71 37.91 10.71C39.61 10.71 40.73 9.95 41.23 8.46L39.51 8.09C39.31 8.75 38.75 9.17 38.02 9.17C37.06 9.17 36.30 8.61 36.23 7.38ZM37.87 4.55C38.79 4.55 39.41 5.17 39.47 6.08L36.26 6.08C36.39 5.07 37.13 4.55 37.87 4.55ZM46.14 8.95C45.92 9.02 45.71 9.03 45.57 9.03C44.91 9.03 44.91 8.58 44.91 7.95L44.91 4.68L46.26 4.68L46.26 3.22L44.91 3.22L44.91 0.99L43.06 1.60L43.06 3.22L42.03 3.22L42.03 4.68L43.06 4.68L43.06 8.37C43.06 9.80 43.54 10.64 45.07 10.64C45.33 10.64 45.99 10.57 46.27 10.43Z"></path></g><!----><!----></svg>