<svg data-v-423bf9ae="" xmlns="http://www.w3.org/2000/svg" viewBox="0 0 549 90" class="iconLeft"><!----><!----><!----><g data-v-423bf9ae="" id="4487e31c-a535-4b88-b4bb-a345d7e939f5" fill="#000000" transform="matrix(5.793902854222764,0,0,5.793902854222764,152.0740202961455,18.76603521470692)"><path d="M0.77 8.68L0.77 8.68L0.77 8.68Q1.23 9.03 1.77 9.28L1.77 9.28L1.77 9.28Q2.31 9.53 2.94 9.56L2.94 9.56L2.94 9.56Q3.68 9.59 4.58 9.44L4.58 9.44L4.58 9.44Q5.47 9.28 6.26 8.89L6.26 8.89L6.26 8.89Q7.04 8.50 7.59 7.85L7.59 7.85L7.59 7.85Q8.15 7.21 8.20 6.26L8.20 6.26L8.20 6.26Q8.23 5.89 8.22 5.63L8.22 5.63L8.22 5.63Q8.20 5.36 7.97 5.11L7.97 5.11L7.97 5.11Q7.78 4.90 7.43 4.74L7.43 4.74L7.43 4.74Q7.08 4.58 6.69 4.45L6.69 4.45L6.69 4.45Q6.29 4.33 5.89 4.24L5.89 4.24L5.89 4.24Q5.49 4.16 5.21 4.12L5.21 4.12L5.21 4.12Q4.97 4.07 4.75 3.96L4.75 3.96L4.75 3.96Q4.54 3.85 4.38 3.68L4.38 3.68L4.38 3.68Q4.23 3.51 4.14 3.29L4.14 3.29L4.14 3.29Q4.06 3.07 4.09 2.81L4.09 2.81L4.09 2.81Q4.40 2.24 4.87 1.90L4.87 1.90L4.87 1.90Q5.33 1.55 5.87 1.39L5.87 1.39L5.87 1.39Q6.41 1.22 6.98 1.20L6.98 1.20L6.98 1.20Q7.55 1.18 8.06 1.23L8.06 1.23L8.06 1.23Q8.25 1.26 8.42 1.30L8.42 1.30L8.42 1.30Q8.60 1.34 8.79 1.34L8.79 1.34L8.78 1.34L8.78 1.34Q8.97 1.20 9.04 1.02L9.04 1.02L9.04 1.02Q9.10 0.84 9.20 0.73L9.20 0.73L9.20 0.73Q9.27 0.56 9.30 0.36L9.30 0.36L9.30 0.36Q9.32 0.17 9.34 0L9.34 0L9.34 0Q8.89-0.24 8.26-0.30L8.26-0.30L8.26-0.30Q7.63-0.36 6.94-0.26L6.94-0.26L6.94-0.26Q6.24-0.15 5.54 0.11L5.54 0.11L5.54 0.11Q4.84 0.38 4.26 0.78L4.26 0.78L4.26 0.78Q3.67 1.18 3.25 1.71L3.25 1.71L3.25 1.71Q2.83 2.24 2.70 2.87L2.70 2.87L2.70 2.87Q2.56 3.51 2.65 3.93L2.65 3.93L2.65 3.93Q2.74 4.34 3.00 4.60L3.00 4.60L3.00 4.60Q3.25 4.86 3.62 5.01L3.62 5.01L3.62 5.01Q3.99 5.15 4.41 5.26L4.41 5.26L4.41 5.26Q4.83 5.38 5.26 5.50L5.26 5.50L5.26 5.50Q5.68 5.63 6.05 5.84L6.05 5.84L6.05 5.84Q6.27 5.96 6.47 6.17L6.47 6.17L6.47 6.17Q6.66 6.38 6.62 6.69L6.62 6.69L6.62 6.69Q6.55 7.18 6.16 7.48L6.16 7.48L6.16 7.48Q5.77 7.77 5.26 7.94L5.26 7.94L5.26 7.94Q4.76 8.11 4.24 8.16L4.24 8.16L4.24 8.16Q3.72 8.22 3.40 8.20L3.40 8.20L3.40 8.20Q3.08 8.20 2.83 8.10L2.83 8.10L2.83 8.10Q2.58 7.99 2.36 7.85L2.36 7.85L2.36 7.85Q2.14 7.70 1.95 7.53L1.95 7.53L1.95 7.53Q1.76 7.35 1.58 7.18L1.58 7.18L1.58 7.18Q1.41 7.34 1.26 7.53L1.26 7.53L1.26 7.53Q1.11 7.71 0.99 7.92L0.99 7.92L0.99 7.92Q0.87 8.13 0.81 8.33L0.81 8.33L0.81 8.33Q0.76 8.53 0.77 8.68ZM9.07 8.68L9.07 8.68L9.07 8.68Q9.53 9.03 10.07 9.28L10.07 9.28L10.07 9.28Q10.61 9.53 11.24 9.56L11.24 9.56L11.24 9.56Q11.98 9.59 12.88 9.44L12.88 9.44L12.88 9.44Q13.78 9.28 14.56 8.89L14.56 8.89L14.56 8.89Q15.34 8.50 15.90 7.85L15.90 7.85L15.90 7.85Q16.45 7.21 16.51 6.26L16.51 6.26L16.51 6.26Q16.53 5.89 16.52 5.63L16.52 5.63L16.52 5.63Q16.51 5.36 16.27 5.11L16.27 5.11L16.27 5.11Q16.09 4.90 15.74 4.74L15.74 4.74L15.74 4.74Q15.39 4.58 14.99 4.45L14.99 4.45L14.99 4.45Q14.59 4.33 14.19 4.24L14.19 4.24L14.19 4.24Q13.79 4.16 13.51 4.12L13.51 4.12L13.51 4.12Q13.27 4.07 13.05 3.96L13.05 3.96L13.05 3.96Q12.84 3.85 12.68 3.68L12.68 3.68L12.68 3.68Q12.53 3.51 12.45 3.29L12.45 3.29L12.45 3.29Q12.36 3.07 12.39 2.81L12.39 2.81L12.39 2.81Q12.70 2.24 13.17 1.90L13.17 1.90L13.17 1.90Q13.64 1.55 14.18 1.39L14.18 1.39L14.18 1.39Q14.71 1.22 15.28 1.20L15.28 1.20L15.28 1.20Q15.85 1.18 16.37 1.23L16.37 1.23L16.37 1.23Q16.55 1.26 16.72 1.30L16.72 1.30L16.72 1.30Q16.90 1.34 17.09 1.34L17.09 1.34L17.08 1.34L17.08 1.34Q17.28 1.20 17.34 1.02L17.34 1.02L17.34 1.02Q17.40 0.84 17.50 0.73L17.50 0.73L17.50 0.73Q17.57 0.56 17.60 0.36L17.60 0.36L17.60 0.36Q17.63 0.17 17.64 0L17.64 0L17.64 0Q17.19-0.24 16.56-0.30L16.56-0.30L16.56-0.30Q15.93-0.36 15.24-0.26L15.24-0.26L15.24-0.26Q14.55-0.15 13.85 0.11L13.85 0.11L13.85 0.11Q13.15 0.38 12.56 0.78L12.56 0.78L12.56 0.78Q11.97 1.18 11.55 1.71L11.55 1.71L11.55 1.71Q11.13 2.24 11.00 2.87L11.00 2.87L11.00 2.87Q10.86 3.51 10.96 3.93L10.96 3.93L10.96 3.93Q11.05 4.34 11.30 4.60L11.30 4.60L11.30 4.60Q11.55 4.86 11.92 5.01L11.92 5.01L11.92 5.01Q12.29 5.15 12.71 5.26L12.71 5.26L12.71 5.26Q13.13 5.38 13.56 5.50L13.56 5.50L13.56 5.50Q13.99 5.63 14.35 5.84L14.35 5.84L14.35 5.84Q14.57 5.96 14.77 6.17L14.77 6.17L14.77 6.17Q14.97 6.38 14.92 6.69L14.92 6.69L14.92 6.69Q14.85 7.18 14.46 7.48L14.46 7.48L14.46 7.48Q14.07 7.77 13.57 7.94L13.57 7.94L13.57 7.94Q13.06 8.11 12.54 8.16L12.54 8.16L12.54 8.16Q12.03 8.22 11.70 8.20L11.70 8.20L11.70 8.20Q11.38 8.20 11.13 8.10L11.13 8.10L11.13 8.10Q10.88 7.99 10.66 7.85L10.66 7.85L10.66 7.85Q10.44 7.70 10.25 7.53L10.25 7.53L10.25 7.53Q10.07 7.35 9.88 7.18L9.88 7.18L9.88 7.18Q9.72 7.34 9.56 7.53L9.56 7.53L9.56 7.53Q9.41 7.71 9.29 7.92L9.29 7.92L9.29 7.92Q9.17 8.13 9.11 8.33L9.11 8.33L9.11 8.33Q9.06 8.53 9.07 8.68ZM18.07 7.14L18.09 7.15L18.09 7.15Q18.06 7.22 18.02 7.41L18.02 7.41L18.02 7.41Q17.98 7.60 17.91 7.85L17.91 7.85L17.91 7.85Q17.85 8.11 17.78 8.38L17.78 8.38L17.78 8.38Q17.71 8.65 17.65 8.90L17.65 8.90L17.65 8.90Q17.58 9.16 17.54 9.35L17.54 9.35L17.54 9.35Q17.50 9.53 17.49 9.60L17.49 9.60L17.49 9.60Q17.49 9.65 17.55 9.65L17.55 9.65L17.55 9.65Q17.61 9.66 17.68 9.66L17.68 9.66L17.68 9.66Q17.75 9.66 17.82 9.67L17.82 9.67L17.82 9.67Q17.89 9.67 17.92 9.70L17.92 9.70L17.92 9.70Q18.14 9.69 18.44 9.69L18.44 9.69L18.44 9.69Q18.73 9.69 19.03 9.70L19.03 9.70L19.03 9.70Q19.32 9.70 19.60 9.70L19.60 9.70L19.60 9.70Q19.89 9.70 20.13 9.69L20.13 9.69L20.13 9.69Q20.57 9.66 21.01 9.65L21.01 9.65L21.01 9.65Q21.45 9.65 21.88 9.58L21.88 9.58L21.88 9.58Q21.99 9.59 22.09 9.60L22.09 9.60L22.09 9.60Q22.19 9.62 22.30 9.60L22.30 9.60L22.30 9.60Q22.44 9.60 22.54 9.42L22.54 9.42L22.54 9.42Q22.64 9.24 22.69 9.02L22.69 9.02L22.69 9.02Q22.74 8.79 22.72 8.59L22.72 8.59L22.72 8.59Q22.71 8.39 22.61 8.33L22.61 8.33L22.57 8.26L22.57 8.26Q22.25 8.20 21.85 8.21L21.85 8.21L21.85 8.21Q21.46 8.22 21.06 8.25L21.06 8.25L21.06 8.25Q20.65 8.27 20.25 8.30L20.25 8.30L20.25 8.30Q19.85 8.33 19.50 8.33L19.50 8.33L19.50 8.33Q19.43 8.12 19.52 7.57L19.52 7.57L19.52 7.57Q19.61 7.01 19.80 6.29L19.80 6.29L19.80 6.29Q19.98 5.56 20.21 4.73L20.21 4.73L20.21 4.73Q20.44 3.91 20.66 3.16L20.66 3.16L20.66 3.16Q20.89 2.41 21.07 1.81L21.07 1.81L21.07 1.81Q21.25 1.20 21.32 0.92L21.32 0.92L21.32 0.92Q21.35 0.84 21.40 0.73L21.40 0.73L21.40 0.73Q21.45 0.62 21.48 0.50L21.48 0.50L21.48 0.50Q21.50 0.39 21.50 0.31L21.50 0.31L21.50 0.31Q21.50 0.21 21.45 0.14L21.45 0.14L21.45 0.14Q21.42 0.14 21.22 0.13L21.22 0.13L21.22 0.13Q21.03 0.13 20.80 0.12L20.80 0.12L20.80 0.12Q20.57 0.11 20.37 0.11L20.37 0.11L20.37 0.11Q20.17 0.10 20.16 0.10L20.16 0.10L20.16 0.10Q20.12 0.15 20.10 0.16L20.10 0.16L20.10 0.16Q20.09 0.17 20.08 0.19L20.08 0.19L20.08 0.19Q20.08 0.21 20.06 0.27L20.06 0.27L20.06 0.27Q20.05 0.34 20.02 0.50L20.02 0.50L20.02 0.50Q19.85 0.90 19.74 1.28L19.74 1.28L19.74 1.28Q19.63 1.67 19.50 2.07L19.50 2.07L19.50 2.07Q19.11 3.35 18.73 4.61L18.73 4.61L18.73 4.61Q18.35 5.87 18.07 7.14L18.07 7.14ZM28.28 9.09L28.28 9.09L28.28 9.09Q28.31 9.16 28.36 9.35L28.36 9.35L28.36 9.35Q28.41 9.53 28.42 9.60L28.42 9.60L28.42 9.60Q28.50 9.59 28.66 9.59L28.66 9.59L28.66 9.59Q28.81 9.59 28.98 9.60L28.98 9.60L28.98 9.60Q29.15 9.62 29.30 9.62L29.30 9.62L29.30 9.62Q29.46 9.62 29.54 9.60L29.54 9.60L29.54 9.60Q29.62 9.48 29.75 9.28L29.75 9.28L29.75 9.28Q29.88 9.09 30.02 8.88L30.02 8.88L30.02 8.88Q30.16 8.67 30.28 8.46L30.28 8.46L30.28 8.46Q30.41 8.26 30.48 8.13L30.48 8.13L30.48 8.13Q30.65 7.87 30.79 7.64L30.79 7.64L30.79 7.64Q30.93 7.41 31.07 7.19L31.07 7.19L31.07 7.19Q31.21 6.97 31.35 6.75L31.35 6.75L31.35 6.75Q31.50 6.52 31.68 6.26L31.68 6.26L31.68 6.26Q32.05 5.73 32.46 5.19L32.46 5.19L32.46 5.19Q32.87 4.65 33.24 4.14L33.24 4.14L33.24 4.14Q33.29 4.07 33.32 4.03L33.32 4.03L33.32 4.03Q33.35 3.99 33.38 3.96L33.38 3.96L33.38 3.96Q33.42 3.92 33.45 3.87L33.45 3.87L33.45 3.87Q33.47 3.82 33.53 3.74L33.53 3.74L33.53 3.74Q33.39 3.57 33.17 3.45L33.17 3.45L33.17 3.45Q32.94 3.33 32.72 3.40L32.72 3.40L32.72 3.40Q32.65 3.46 32.40 3.77L32.40 3.77L32.40 3.77Q32.16 4.09 31.81 4.55L31.81 4.55L31.81 4.55Q31.47 5.01 31.09 5.56L31.09 5.56L31.09 5.56Q30.70 6.10 30.35 6.60L30.35 6.60L30.35 6.60Q30.00 7.10 29.74 7.49L29.74 7.49L29.74 7.49Q29.48 7.88 29.39 8.04L29.39 8.04L29.39 8.04Q29.29 7.71 29.24 7.35L29.24 7.35L29.24 7.35Q29.19 6.99 29.16 6.62L29.16 6.62L29.16 6.62Q29.13 6.24 29.11 5.87L29.11 5.87L29.11 5.87Q29.09 5.49 29.05 5.15L29.05 5.15L29.05 5.15Q29.04 5.03 29.03 4.84L29.03 4.84L29.03 4.84Q29.02 4.65 29.02 4.45L29.02 4.45L29.02 4.45Q29.02 4.26 29.01 4.08L29.01 4.08L29.01 4.08Q28.99 3.91 28.98 3.78L28.98 3.78L28.98 3.78Q28.84 3.77 28.72 3.76L28.72 3.76L28.72 3.76Q28.60 3.75 28.48 3.78L28.48 3.78L28.48 3.78Q28.35 3.81 28.20 3.89L28.20 3.89L28.20 3.89Q28.04 3.98 27.82 4.16L27.82 4.16L27.82 4.16Q27.85 4.31 27.84 4.44L27.84 4.44L27.84 4.44Q27.83 4.56 27.83 4.72L27.83 4.72L27.83 4.72Q27.85 5.29 27.86 5.86L27.86 5.86L27.86 5.86Q27.87 6.43 27.94 6.99L27.94 6.99L27.94 6.99Q27.96 7.18 28.00 7.47L28.00 7.47L28.00 7.47Q28.04 7.76 28.08 8.05L28.08 8.05L28.08 8.05Q28.13 8.34 28.18 8.62L28.18 8.62L28.18 8.62Q28.24 8.90 28.28 9.09ZM38.09 6.80L38.09 6.80L38.09 6.80Q37.98 6.71 37.78 6.61L37.78 6.61L37.78 6.61Q37.58 6.51 37.31 6.42L37.31 6.42L37.31 6.42Q37.04 6.33 36.74 6.27L36.74 6.27L36.74 6.27Q36.43 6.20 36.12 6.16L36.12 6.16L36.12 6.16Q35.99 6.15 35.86 6.09L35.86 6.09L35.86 6.09Q35.73 6.03 35.62 5.95L35.62 5.95L35.62 5.95Q35.50 5.87 35.44 5.75L35.44 5.75L35.44 5.75Q35.38 5.63 35.39 5.49L35.39 5.49L35.41 5.46L35.41 5.46Q35.63 5.14 35.95 4.96L35.95 4.96L35.95 4.96Q36.26 4.77 36.61 4.69L36.61 4.69L36.61 4.69Q36.96 4.61 37.32 4.60L37.32 4.60L37.32 4.60Q37.67 4.59 37.97 4.62L37.97 4.62L37.97 4.62Q38.12 4.63 38.26 4.66L38.26 4.66L38.26 4.66Q38.40 4.69 38.54 4.68L38.54 4.68L38.54 4.68Q38.57 4.68 38.60 4.61L38.60 4.61L38.60 4.61Q38.63 4.54 38.65 4.46L38.65 4.46L38.65 4.46Q38.67 4.38 38.70 4.31L38.70 4.31L38.70 4.31Q38.72 4.24 38.77 4.21L38.77 4.21L38.77 4.21Q38.82 4.06 38.92 3.96L38.92 3.96L38.92 3.96Q39.02 3.85 38.99 3.70L38.99 3.70L38.99 3.70Q38.93 3.65 38.82 3.61L38.82 3.61L38.82 3.61Q38.71 3.57 38.64 3.54L38.64 3.54L38.64 3.54Q38.33 3.44 37.91 3.44L37.91 3.44L37.91 3.44Q37.49 3.43 37.02 3.52L37.02 3.52L37.02 3.52Q36.55 3.61 36.09 3.78L36.09 3.78L36.09 3.78Q35.62 3.95 35.22 4.20L35.22 4.20L35.22 4.20Q34.83 4.45 34.55 4.78L34.55 4.78L34.55 4.78Q34.27 5.11 34.19 5.52L34.19 5.52L34.19 5.52Q34.09 5.94 34.17 6.20L34.17 6.20L34.17 6.20Q34.26 6.47 34.45 6.64L34.45 6.64L34.45 6.64Q34.65 6.82 34.92 6.92L34.92 6.92L34.92 6.92Q35.20 7.01 35.50 7.08L35.50 7.08L35.50 7.08Q35.80 7.15 36.09 7.22L36.09 7.22L36.09 7.22Q36.39 7.29 36.62 7.41L36.62 7.41L36.62 7.41Q36.74 7.46 36.87 7.57L36.87 7.57L36.87 7.57Q37.00 7.69 36.97 7.85L36.97 7.85L36.97 7.85Q36.90 8.23 36.34 8.46L36.34 8.46L36.34 8.46Q35.78 8.69 34.92 8.67L34.92 8.67L34.92 8.67Q34.78 8.67 34.62 8.61L34.62 8.61L34.62 8.61Q34.45 8.55 34.29 8.46L34.29 8.46L34.29 8.46Q34.13 8.37 34.01 8.26L34.01 8.26L34.01 8.26Q33.88 8.15 33.80 8.05L33.80 8.05L33.63 7.88L33.63 7.88Q33.35 8.11 33.20 8.48L33.20 8.48L33.20 8.48Q33.05 8.85 32.93 9.11L32.93 9.11L32.93 9.11Q33.29 9.35 33.69 9.51L33.69 9.51L33.69 9.51Q34.09 9.67 34.58 9.70L34.58 9.70L34.58 9.70Q34.89 9.72 35.29 9.67L35.29 9.67L35.29 9.67Q35.69 9.63 36.10 9.54L36.10 9.54L36.10 9.54Q36.51 9.45 36.91 9.28L36.91 9.28L36.91 9.28Q37.31 9.11 37.63 8.88L37.63 8.88L37.63 8.88Q37.94 8.64 38.14 8.31L38.14 8.31L38.14 8.31Q38.33 7.98 38.33 7.56L38.33 7.56L38.33 7.56Q38.33 7.29 38.31 7.13L38.31 7.13L38.31 7.13Q38.29 6.97 38.09 6.80ZM42.90 8.68L42.90 8.68L42.90 8.68Q43.36 9.03 43.90 9.28L43.90 9.28L43.90 9.28Q44.44 9.53 45.07 9.56L45.07 9.56L45.07 9.56Q45.81 9.59 46.70 9.44L46.70 9.44L46.70 9.44Q47.60 9.28 48.38 8.89L48.38 8.89L48.38 8.89Q49.17 8.50 49.72 7.85L49.72 7.85L49.72 7.85Q50.27 7.21 50.33 6.26L50.33 6.26L50.33 6.26Q50.36 5.89 50.34 5.63L50.34 5.63L50.34 5.63Q50.33 5.36 50.09 5.11L50.09 5.11L50.09 5.11Q49.91 4.90 49.56 4.74L49.56 4.74L49.56 4.74Q49.21 4.58 48.81 4.45L48.81 4.45L48.81 4.45Q48.41 4.33 48.01 4.24L48.01 4.24L48.01 4.24Q47.61 4.16 47.33 4.12L47.33 4.12L47.33 4.12Q47.10 4.07 46.88 3.96L46.88 3.96L46.88 3.96Q46.66 3.85 46.51 3.68L46.51 3.68L46.51 3.68Q46.35 3.51 46.27 3.29L46.27 3.29L46.27 3.29Q46.19 3.07 46.21 2.81L46.21 2.81L46.21 2.81Q46.52 2.24 46.99 1.90L46.99 1.90L46.99 1.90Q47.46 1.55 48.00 1.39L48.00 1.39L48.00 1.39Q48.54 1.22 49.10 1.20L49.10 1.20L49.10 1.20Q49.67 1.18 50.19 1.23L50.19 1.23L50.19 1.23Q50.37 1.26 50.55 1.30L50.55 1.30L50.55 1.30Q50.72 1.34 50.92 1.34L50.92 1.34L50.90 1.34L50.90 1.34Q51.10 1.20 51.16 1.02L51.16 1.02L51.16 1.02Q51.23 0.84 51.32 0.73L51.32 0.73L51.32 0.73Q51.39 0.56 51.42 0.36L51.42 0.36L51.42 0.36Q51.45 0.17 51.46 0L51.46 0L51.46 0Q51.02-0.24 50.39-0.30L50.39-0.30L50.39-0.30Q49.76-0.36 49.06-0.26L49.06-0.26L49.06-0.26Q48.37-0.15 47.67 0.11L47.67 0.11L47.67 0.11Q46.97 0.38 46.38 0.78L46.38 0.78L46.38 0.78Q45.79 1.18 45.37 1.71L45.37 1.71L45.37 1.71Q44.95 2.24 44.83 2.87L44.83 2.87L44.83 2.87Q44.69 3.51 44.78 3.93L44.78 3.93L44.78 3.93Q44.87 4.34 45.12 4.60L45.12 4.60L45.12 4.60Q45.37 4.86 45.74 5.01L45.74 5.01L45.74 5.01Q46.12 5.15 46.54 5.26L46.54 5.26L46.54 5.26Q46.96 5.38 47.38 5.50L47.38 5.50L47.38 5.50Q47.81 5.63 48.17 5.84L48.17 5.84L48.17 5.84Q48.40 5.96 48.59 6.17L48.59 6.17L48.59 6.17Q48.79 6.38 48.75 6.69L48.75 6.69L48.75 6.69Q48.68 7.18 48.29 7.48L48.29 7.48L48.29 7.48Q47.89 7.77 47.39 7.94L47.39 7.94L47.39 7.94Q46.89 8.11 46.37 8.16L46.37 8.16L46.37 8.16Q45.85 8.22 45.53 8.20L45.53 8.20L45.53 8.20Q45.21 8.20 44.95 8.10L44.95 8.10L44.95 8.10Q44.70 7.99 44.48 7.85L44.48 7.85L44.48 7.85Q44.27 7.70 44.08 7.53L44.08 7.53L44.08 7.53Q43.89 7.35 43.71 7.18L43.71 7.18L43.71 7.18Q43.54 7.34 43.39 7.53L43.39 7.53L43.39 7.53Q43.23 7.71 43.11 7.92L43.11 7.92L43.11 7.92Q42.99 8.13 42.94 8.33L42.94 8.33L42.94 8.33Q42.88 8.53 42.90 8.68ZM51.20 8.68L51.20 8.68L51.20 8.68Q51.66 9.03 52.20 9.28L52.20 9.28L52.20 9.28Q52.74 9.53 53.37 9.56L53.37 9.56L53.37 9.56Q54.11 9.59 55.01 9.44L55.01 9.44L55.01 9.44Q55.90 9.28 56.69 8.89L56.69 8.89L56.69 8.89Q57.47 8.50 58.02 7.85L58.02 7.85L58.02 7.85Q58.58 7.21 58.63 6.26L58.63 6.26L58.63 6.26Q58.66 5.89 58.65 5.63L58.65 5.63L58.65 5.63Q58.63 5.36 58.39 5.11L58.39 5.11L58.39 5.11Q58.21 4.90 57.86 4.74L57.86 4.74L57.86 4.74Q57.51 4.58 57.11 4.45L57.11 4.45L57.11 4.45Q56.71 4.33 56.31 4.24L56.31 4.24L56.31 4.24Q55.92 4.16 55.64 4.12L55.64 4.12L55.64 4.12Q55.40 4.07 55.18 3.96L55.18 3.96L55.18 3.96Q54.96 3.85 54.81 3.68L54.81 3.68L54.81 3.68Q54.66 3.51 54.57 3.29L54.57 3.29L54.57 3.29Q54.49 3.07 54.52 2.81L54.52 2.81L54.52 2.81Q54.82 2.24 55.29 1.90L55.29 1.90L55.29 1.90Q55.76 1.55 56.30 1.39L56.30 1.39L56.30 1.39Q56.84 1.22 57.41 1.20L57.41 1.20L57.41 1.20Q57.97 1.18 58.49 1.23L58.49 1.23L58.49 1.23Q58.67 1.26 58.85 1.30L58.85 1.30L58.85 1.30Q59.02 1.34 59.22 1.34L59.22 1.34L59.21 1.34L59.21 1.34Q59.40 1.20 59.46 1.02L59.46 1.02L59.46 1.02Q59.53 0.84 59.63 0.73L59.63 0.73L59.63 0.73Q59.70 0.56 59.72 0.36L59.72 0.36L59.72 0.36Q59.75 0.17 59.77 0L59.77 0L59.77 0Q59.32-0.24 58.69-0.30L58.69-0.30L58.69-0.30Q58.06-0.36 57.36-0.26L57.36-0.26L57.36-0.26Q56.67-0.15 55.97 0.11L55.97 0.11L55.97 0.11Q55.27 0.38 54.68 0.78L54.68 0.78L54.68 0.78Q54.10 1.18 53.68 1.71L53.68 1.71L53.68 1.71Q53.26 2.24 53.13 2.87L53.13 2.87L53.13 2.87Q52.99 3.51 53.08 3.93L53.08 3.93L53.08 3.93Q53.17 4.34 53.42 4.60L53.42 4.60L53.42 4.60Q53.68 4.86 54.05 5.01L54.05 5.01L54.05 5.01Q54.42 5.15 54.84 5.26L54.84 5.26L54.84 5.26Q55.26 5.38 55.68 5.50L55.68 5.50L55.68 5.50Q56.11 5.63 56.48 5.84L56.48 5.84L56.48 5.84Q56.70 5.96 56.90 6.17L56.90 6.17L56.90 6.17Q57.09 6.38 57.05 6.69L57.05 6.69L57.05 6.69Q56.98 7.18 56.59 7.48L56.59 7.48L56.59 7.48Q56.20 7.77 55.69 7.94L55.69 7.94L55.69 7.94Q55.19 8.11 54.67 8.16L54.67 8.16L54.67 8.16Q54.15 8.22 53.83 8.20L53.83 8.20L53.83 8.20Q53.51 8.20 53.26 8.10L53.26 8.10L53.26 8.10Q53.00 7.99 52.79 7.85L52.79 7.85L52.79 7.85Q52.57 7.70 52.38 7.53L52.38 7.53L52.38 7.53Q52.19 7.35 52.01 7.18L52.01 7.18L52.01 7.18Q51.84 7.34 51.69 7.53L51.69 7.53L51.69 7.53Q51.53 7.71 51.41 7.92L51.41 7.92L51.41 7.92Q51.30 8.13 51.24 8.33L51.24 8.33L51.24 8.33Q51.18 8.53 51.20 8.68ZM61.75 0.42L61.75 0.42L61.75 0.42Q61.66 0.59 61.52 0.97L61.52 0.97L61.52 0.97Q61.38 1.34 61.23 1.85L61.23 1.85L61.23 1.85Q61.08 2.35 60.92 2.93L60.92 2.93L60.92 2.93Q60.76 3.51 60.61 4.09L60.61 4.09L60.61 4.09Q60.47 4.66 60.34 5.18L60.34 5.18L60.34 5.18Q60.21 5.70 60.13 6.08L60.13 6.08L60.13 6.08Q59.93 6.92 59.74 7.76L59.74 7.76L59.74 7.76Q59.54 8.60 59.42 9.45L59.42 9.45L59.42 9.45Q59.61 9.53 59.76 9.53L59.76 9.53L59.76 9.53Q59.91 9.52 60.10 9.52L60.10 9.52L60.10 9.52Q60.10 9.52 60.21 9.53L60.21 9.53L60.21 9.53Q60.31 9.55 60.44 9.56L60.44 9.56L60.44 9.56Q60.56 9.58 60.70 9.59L60.70 9.59L60.70 9.59Q60.83 9.60 60.90 9.60L60.90 9.60L60.90 9.60Q61.00 9.30 61.08 8.82L61.08 8.82L61.08 8.82Q61.12 8.62 61.15 8.44L61.15 8.44L61.15 8.44Q61.18 8.26 61.22 8.06L61.22 8.06L61.22 8.06Q61.33 7.57 61.45 7.11L61.45 7.11L61.45 7.11Q61.56 6.64 61.67 6.15L61.67 6.15L61.67 6.15Q61.70 6.06 61.75 5.98L61.75 5.98L61.75 5.98Q61.80 5.89 61.89 5.87L61.89 5.87L61.89 5.87Q62.65 5.71 63.52 5.64L63.52 5.64L63.52 5.64Q64.40 5.57 65.16 5.52L65.16 5.52L65.16 5.52Q65.23 5.60 65.20 5.75L65.20 5.75L65.20 5.75Q65.17 5.95 65.12 6.15L65.12 6.15L65.12 6.15Q65.07 6.34 65.03 6.54L65.03 6.54L65.03 6.54Q64.96 6.86 64.87 7.21L64.87 7.21L64.87 7.21Q64.78 7.56 64.71 7.92L64.71 7.92L64.71 7.92Q64.64 8.27 64.59 8.62L64.59 8.62L64.59 8.62Q64.54 8.97 64.57 9.28L64.57 9.28L64.57 9.28Q64.76 9.30 64.94 9.28L64.94 9.28L64.94 9.28Q65.11 9.27 65.46 9.20L65.46 9.20L65.46 9.20Q65.59 9.16 65.70 9.12L65.70 9.12L65.70 9.12Q65.81 9.09 65.93 9.03L65.93 9.03L65.93 9.03Q66.01 8.78 66.05 8.52L66.05 8.52L66.05 8.52Q66.09 8.26 66.15 8.01L66.15 8.01L66.15 8.01Q66.22 7.67 66.29 7.34L66.29 7.34L66.29 7.34Q66.36 7.00 66.44 6.68L66.44 6.68L66.44 6.68Q66.65 5.71 66.86 4.75L66.86 4.75L66.86 4.75Q67.07 3.78 67.34 2.83L67.34 2.83L67.34 2.83Q67.40 2.65 67.47 2.48L67.47 2.48L67.47 2.48Q67.54 2.31 67.59 2.13L67.59 2.13L67.59 2.13Q67.75 1.54 67.93 0.96L67.93 0.96L67.93 0.96Q68.11 0.38 68.33-0.21L68.33-0.21L68.33-0.21Q68.32-0.32 68.40-0.45L68.40-0.45L68.40-0.45Q68.47-0.57 68.39-0.64L68.39-0.64L68.39-0.64Q68.32-0.66 68.14-0.64L68.14-0.64L68.14-0.64Q67.97-0.63 67.77-0.59L67.77-0.59L67.77-0.59Q67.58-0.56 67.40-0.54L67.40-0.54L67.40-0.54Q67.23-0.52 67.17-0.52L67.17-0.52L67.17-0.52Q67.13-0.46 67.08-0.45L67.08-0.45L67.08-0.45Q67.03-0.43 66.99-0.43L66.99-0.43L66.99-0.43Q66.95-0.43 66.91-0.42L66.91-0.42L66.91-0.42Q66.86-0.41 66.85-0.35L66.85-0.35L66.85-0.35Q66.51 0.60 66.26 1.58L66.26 1.58L66.26 1.58Q66.01 2.55 65.77 3.51L65.77 3.51L65.77 3.51Q65.74 3.63 65.72 3.76L65.72 3.76L65.72 3.76Q65.69 3.89 65.65 4.00L65.65 4.00L65.65 4.00Q65.59 4.10 65.52 4.14L65.52 4.14L65.52 4.14Q65.42 4.20 65.18 4.24L65.18 4.24L65.18 4.24Q64.95 4.27 64.67 4.30L64.67 4.30L64.67 4.30Q64.40 4.33 64.15 4.34L64.15 4.34L64.15 4.34Q63.90 4.35 63.77 4.35L63.77 4.35L63.77 4.35Q63.63 4.35 63.40 4.38L63.40 4.38L63.40 4.38Q63.17 4.41 62.92 4.43L62.92 4.43L62.92 4.43Q62.68 4.45 62.45 4.46L62.45 4.46L62.45 4.46Q62.23 4.47 62.12 4.44L62.12 4.44L62.12 4.44Q62.06 4.37 62.10 4.12L62.10 4.12L62.10 4.12Q62.13 3.86 62.21 3.52L62.21 3.52L62.21 3.52Q62.29 3.18 62.40 2.78L62.40 2.78L62.40 2.78Q62.51 2.38 62.61 2.01L62.61 2.01L62.61 2.01Q62.72 1.64 62.81 1.33L62.81 1.33L62.81 1.33Q62.90 1.02 62.94 0.87L62.94 0.87L62.94 0.87Q63.01 0.60 63.08 0.44L63.08 0.44L63.08 0.44Q63.14 0.28 63.15 0.01L63.15 0.01L63.15 0.01Q62.97 0.01 62.68-0.01L62.68-0.01L62.68-0.01Q62.40-0.04 62.23-0.01L62.23-0.01L62.23-0.01Q62.16 0.06 62.09-0.01L62.09-0.01L62.09-0.01Q62.02-0.07 61.95-0.01L61.95-0.01L61.95-0.01Q61.92 0 61.89 0.06L61.89 0.06L61.89 0.06Q61.87 0.11 61.84 0.18L61.84 0.18L61.84 0.18Q61.81 0.25 61.79 0.32L61.79 0.32L61.79 0.32Q61.77 0.39 61.75 0.42Z"></path></g><defs data-v-423bf9ae=""><linearGradient data-v-423bf9ae="" gradientTransform="rotate(25)" id="7a26172d-89ff-4d0f-97b2-a725e1dd8e6d" x1="0%" y1="0%" x2="100%" y2="0%"><stop data-v-423bf9ae="" offset="0%" style="stop-color: rgb(141, 44, 227); stop-opacity: 1;"></stop><stop data-v-423bf9ae="" offset="100%" style="stop-color: rgb(247, 198, 246); stop-opacity: 1;"></stop></linearGradient></defs><g data-v-423bf9ae="" id="f8a16c90-88ee-4651-af2e-c565a08b252d" transform="matrix(1.3846836462321845,0,0,1.3846836462321845,-0.610195370155111,-26.312836202920934)" stroke="none" fill="url(#7a26172d-89ff-4d0f-97b2-a725e1dd8e6d)"><path d="M85.878 38.09c-4.859-11.382-16.267-19.08-28.829-19.08-8.907 0-17.232 3.728-23.118 10.184a26.56 26.56 0 0 0-6.413-.793C12.842 28.4.903 40.31.903 54.986c0 15.374 11.247 26.9 21.711 28.877.912.19 2.356.137 30.147.137h23.976C88.863 84 99.5 72.602 99.5 59.479c0-9.333-5.554-17.737-13.622-21.389zM76.737 71H52.761c-21.373 0-26.734.062-28.038.025-5.608-1.283-10.82-8.915-10.82-16.04 0-7.509 6.108-13.556 13.615-13.556 2.052 0 4.024.444 5.864 1.325a6.501 6.501 0 0 0 8.266-2.339c3.4-5.263 9.158-8.413 15.401-8.413 8.021 0 15.234 5.345 17.545 13.017.654 2.176 2.397 3.822 4.596 4.391 4.1 1.061 7.311 5.451 7.311 10.07C86.5 65.353 81.664 71 76.737 71z"></path></g><!----></svg>