<svg data-v-fde0c5aa="" xmlns="http://www.w3.org/2000/svg" viewBox="0 0 300 300" class="icon"><!----><defs data-v-fde0c5aa=""><!----></defs><rect data-v-fde0c5aa="" fill="transparent" x="0" y="0" width="300px" height="300px" class="logo-background-square"></rect><!----><defs data-v-fde0c5aa=""><linearGradient data-v-fde0c5aa="" gradientTransform="rotate(25)" id="9dc8929e-cc0c-405e-90fc-93c34d212be1" x1="0%" y1="0%" x2="100%" y2="0%"><stop data-v-fde0c5aa="" offset="0%" stop-color="#8D2CE3" stop-opacity="1"></stop><stop data-v-fde0c5aa="" offset="100%" stop-color="#F7C6F6" stop-opacity="1"></stop></linearGradient></defs><g data-v-fde0c5aa="" id="cc1866a3-d187-4063-9210-a3b387593a32" fill="url(#9dc8929e-cc0c-405e-90fc-93c34d212be1)" stroke="none" transform="matrix(2.2313052093636103,0,0,2.2313052093636103,37.98513592419773,35.069043091605195)"><path d="M85.878 38.09c-4.859-11.382-16.267-19.08-28.829-19.08-8.907 0-17.232 3.728-23.118 10.184a26.56 26.56 0 0 0-6.413-.793C12.842 28.4.903 40.31.903 54.986c0 15.374 11.247 26.9 21.711 28.877.912.19 2.356.137 30.147.137h23.976C88.863 84 99.5 72.602 99.5 59.479c0-9.333-5.554-17.737-13.622-21.389zM76.737 71H52.761c-21.373 0-26.734.062-28.038.025-5.608-1.283-10.82-8.915-10.82-16.04 0-7.509 6.108-13.556 13.615-13.556 2.052 0 4.024.444 5.864 1.325a6.501 6.501 0 0 0 8.266-2.339c3.4-5.263 9.158-8.413 15.401-8.413 8.021 0 15.234 5.345 17.545 13.017.654 2.176 2.397 3.822 4.596 4.391 4.1 1.061 7.311 5.451 7.311 10.07C86.5 65.353 81.664 71 76.737 71z"></path></g><!----></svg>