<svg data-v-423bf9ae="" xmlns="http://www.w3.org/2000/svg" viewBox="0 0 91.01710242438897 60" class="icon"><!----><!----><!----><!----><g data-v-423bf9ae="" id="a0da166e-e867-4d38-876a-a648e0d3a533" transform="matrix(0.9231224308214563,0,0,0.9231224308214563,-0.8335777730660539,-17.548557621201837)" stroke="none" fill="black"><path d="M85.878 38.09c-4.859-11.382-16.267-19.08-28.829-19.08-8.907 0-17.232 3.728-23.118 10.184a26.56 26.56 0 0 0-6.413-.793C12.842 28.4.903 40.31.903 54.986c0 15.374 11.247 26.9 21.711 28.877.912.19 2.356.137 30.147.137h23.976C88.863 84 99.5 72.602 99.5 59.479c0-9.333-5.554-17.737-13.622-21.389zM76.737 71H52.761c-21.373 0-26.734.062-28.038.025-5.608-1.283-10.82-8.915-10.82-16.04 0-7.509 6.108-13.556 13.615-13.556 2.052 0 4.024.444 5.864 1.325a6.501 6.501 0 0 0 8.266-2.339c3.4-5.263 9.158-8.413 15.401-8.413 8.021 0 15.234 5.345 17.545 13.017.654 2.176 2.397 3.822 4.596 4.391 4.1 1.061 7.311 5.451 7.311 10.07C86.5 65.353 81.664 71 76.737 71z"></path></g><!----></svg>