<svg data-v-fde0c5aa="" xmlns="http://www.w3.org/2000/svg" viewBox="0 0 300 300" class="iconAbove"><!----><defs data-v-fde0c5aa=""><!----></defs><rect data-v-fde0c5aa="" fill="#4451D9" x="0" y="0" width="300px" height="300px" class="logo-background-square"></rect><defs data-v-fde0c5aa=""><!----></defs><g data-v-fde0c5aa="" id="4f6f0ea4-3033-4200-aa50-77e4d2fe1380" fill="#ffffff" transform="matrix(3.2467534818404107,0,0,3.2467534818404107,18.668831084056727,166.045454529215)"><path d="M5.19 9.81L5.19 7.81L9.48 7.81L9.48 13.02L7.32 13.02L7.21 11.97L7.21 11.97Q6.50 13.16 4.70 13.16L4.70 13.16L4.70 13.16Q3.49 13.16 2.51 12.62L2.51 12.62L2.51 12.62Q1.54 12.08 0.97 11.02L0.97 11.02L0.97 11.02Q0.41 9.95 0.41 8.43L0.41 8.43L0.41 8.43Q0.41 6.16 1.67 4.90L1.67 4.90L1.67 4.90Q2.94 3.64 5.19 3.64L5.19 3.64L5.19 3.64Q6.92 3.64 7.93 4.23L7.93 4.23L7.93 4.23Q8.95 4.82 9.51 6.17L9.51 6.17L6.47 7.27L6.47 7.27Q6.29 6.09 5.31 6.09L5.31 6.09L5.31 6.09Q4.49 6.09 4.12 6.64L4.12 6.64L4.12 6.64Q3.74 7.20 3.74 8.40L3.74 8.40L3.74 8.40Q3.74 9.69 4.14 10.24L4.14 10.24L4.14 10.24Q4.55 10.79 5.42 10.79L5.42 10.79L5.42 10.79Q6.03 10.79 6.39 10.55L6.39 10.55L6.39 10.55Q6.75 10.30 6.75 9.83L6.75 9.83L6.75 9.81L5.19 9.81ZM14.07 10.63L18.65 10.63L18.65 13.02L10.81 13.02L10.81 3.78L18.48 3.78L18.48 6.17L14.07 6.17L14.07 7.32L17.63 7.32L17.63 9.53L14.07 9.53L14.07 10.63ZM28.20 3.78L28.20 6.17L25.31 6.17L25.31 13.02L22.05 13.02L22.05 6.17L19.15 6.17L19.15 3.78L28.20 3.78ZM38.58 3.22L34.90 14L31.92 14L35.60 3.22L38.58 3.22ZM47.77 3.78L47.77 3.78Q51.65 3.78 51.65 7.01L51.65 7.01L51.65 7.01Q51.65 8.51 50.67 9.30L50.67 9.30L50.67 9.30Q49.69 10.08 47.77 10.08L47.77 10.08L46.13 10.08L46.13 13.02L42.87 13.02L42.87 3.78L47.77 3.78ZM47.24 7.84L47.24 7.84Q47.84 7.84 48.11 7.63L48.11 7.63L48.11 7.63Q48.38 7.42 48.38 6.97L48.38 6.97L48.38 6.97Q48.38 6.52 48.11 6.31L48.11 6.31L48.11 6.31Q47.84 6.10 47.24 6.10L47.24 6.10L46.13 6.10L46.13 7.84L47.24 7.84ZM57.16 3.64L57.16 3.64Q59.37 3.64 60.61 4.89L60.61 4.89L60.61 4.89Q61.85 6.15 61.85 8.40L61.85 8.40L61.85 8.40Q61.85 10.65 60.61 11.91L60.61 11.91L60.61 11.91Q59.37 13.16 57.16 13.16L57.16 13.16L57.16 13.16Q55.71 13.16 54.65 12.60L54.65 12.60L54.65 12.60Q53.59 12.04 53.02 10.97L53.02 10.97L53.02 10.97Q52.46 9.90 52.46 8.40L52.46 8.40L52.46 8.40Q52.46 6.90 53.02 5.83L53.02 5.83L53.02 5.83Q53.59 4.76 54.65 4.20L54.65 4.20L54.65 4.20Q55.71 3.64 57.16 3.64L57.16 3.64ZM57.16 6.09L57.16 6.09Q56.45 6.09 56.12 6.64L56.12 6.64L56.12 6.64Q55.79 7.20 55.79 8.40L55.79 8.40L55.79 8.40Q55.79 9.60 56.12 10.16L56.12 10.16L56.12 10.16Q56.45 10.71 57.16 10.71L57.16 10.71L57.16 10.71Q57.88 10.71 58.20 10.16L58.20 10.16L58.20 10.16Q58.52 9.60 58.52 8.40L58.52 8.40L58.52 8.40Q58.52 7.20 58.20 6.64L58.20 6.64L58.20 6.64Q57.88 6.09 57.16 6.09L57.16 6.09ZM66.84 3.64L66.84 3.64Q68.21 3.64 69.17 3.96L69.17 3.96L69.17 3.96Q70.14 4.28 71.09 5.11L71.09 5.11L69.66 7.14L69.66 7.14Q69.03 6.55 68.38 6.29L68.38 6.29L68.38 6.29Q67.73 6.03 66.93 6.03L66.93 6.03L66.93 6.03Q66.44 6.03 66.15 6.18L66.15 6.18L66.15 6.18Q65.86 6.33 65.86 6.57L65.86 6.57L65.86 6.57Q65.86 6.72 66.14 6.80L66.14 6.80L66.14 6.80Q66.42 6.89 67.12 7.01L67.12 7.01L67.12 7.01Q69.15 7.38 70.03 8.11L70.03 8.11L70.03 8.11Q70.92 8.85 70.92 10.18L70.92 10.18L70.92 10.18Q70.92 11.13 70.38 11.80L70.38 11.80L70.38 11.80Q69.83 12.47 68.89 12.82L68.89 12.82L68.89 12.82Q67.96 13.16 66.79 13.16L66.79 13.16L66.79 13.16Q65.16 13.16 64.18 12.85L64.18 12.85L64.18 12.85Q63.20 12.54 62.26 11.86L62.26 11.86L63.66 9.65L63.66 9.65Q64.25 10.22 64.95 10.49L64.95 10.49L64.95 10.49Q65.65 10.77 66.56 10.77L66.56 10.77L66.56 10.77Q67.58 10.77 67.58 10.35L67.58 10.35L67.58 10.35Q67.58 10.12 67.26 10.01L67.26 10.01L67.26 10.01Q66.93 9.90 66.21 9.77L66.21 9.77L66.21 9.77Q65.14 9.58 64.39 9.32L64.39 9.32L64.39 9.32Q63.64 9.07 63.08 8.47L63.08 8.47L63.08 8.47Q62.51 7.87 62.51 6.82L62.51 6.82L62.51 6.82Q62.51 5.87 63.01 5.15L63.01 5.15L63.01 5.15Q63.52 4.44 64.49 4.04L64.49 4.04L64.49 4.04Q65.46 3.64 66.84 3.64L66.84 3.64ZM80.49 3.78L80.49 6.17L77.60 6.17L77.60 13.02L74.34 13.02L74.34 6.17L71.44 6.17L71.44 3.78L80.49 3.78Z"></path></g><defs data-v-fde0c5aa=""><!----></defs><g data-v-fde0c5aa="" id="54d24c6a-bd34-4fe9-8fa6-1bf1aac76d50" stroke="none" fill="#31357D" transform="matrix(0.8877727989996387,0,0,0.8877727989996387,105.91255863944612,79.29911992580028)"><switch><g><path d="M89.141 35.617C86.25 22.852 77.844 14.405 68.699 10.364c11.371 10.018 21.846 29.405 8.814 47.069-5.406 7.331-16.217 10.228-20.746 8.184 0 0 7.002-1.487 11.357-5.295 8.469-8.017 11.299-20.932 4.52-32.673a25.839 25.839 0 0 0-3.357-4.575c-.018-.021-.033-.042-.051-.062-4.764-5.683-11.307-9.075-18.337-10.116-9.127-1.715-20.896.515-29.71 8.666C11.58 30.45 8.468 41.953 9.542 51.895c2.989-14.858 14.542-33.622 36.355-31.171 9.053 1.019 16.965 8.932 17.461 13.877 0 0-5.277-8.281-18.365-8.281-.24.004-.747.024-.761.024l-.167.01c-8.51.333-16.783 4.784-21.83 13.526a25.819 25.819 0 0 0-2.284 5.195l-.028.074c-2.539 6.968-2.205 14.33.407 20.938 3.079 8.763 10.896 17.841 22.361 21.397 12.502 3.878 24.02.82 32.092-5.079-14.363 4.837-36.389 4.216-45.173-15.899-3.645-8.35-.749-19.159 3.287-22.061 0 0-4.534 8.71 2.012 20.044 4.482 7.484 12.617 12.658 22.949 12.658.498 0 4.488-.311 5.926-.633l.08-.011c7.303-1.286 13.512-5.256 17.928-10.822 6.05-7.046 10.003-18.356 7.349-30.064z"></path></g></switch></g><!----></svg>