<svg data-v-423bf9ae="" xmlns="http://www.w3.org/2000/svg" viewBox="0 0 379 90" class="iconLeft"><!----><!----><!----><g data-v-423bf9ae="" id="1f83ed68-515b-4ed5-abdd-f166571fbbc0" fill="black" transform="matrix(5.633803018697211,0,0,5.633803018697211,113.66800981599621,14.999999046325684)"><path d="M9.51 5.63C9.51 2.94 7.87 0.70 4.62 0.70L0.63 0.70L0.49 1.33L1.82 1.60L1.82 9.60L0.49 10.01L0.49 10.50L4.62 10.50C7.76 10.50 9.51 8.32 9.51 5.63ZM4.38 1.47C6.96 1.47 8.04 3.11 8.04 5.63C8.04 8.15 6.69 9.73 4.38 9.73L3.22 9.73L3.22 1.47ZM14.39 9.84C12.64 9.84 12.10 8.27 12.10 6.73C12.10 5.28 12.70 3.85 14.20 3.85C15.95 3.85 16.49 5.42 16.49 6.96C16.49 8.41 15.89 9.84 14.39 9.84ZM14.18 3.08C11.94 3.08 10.70 5.00 10.70 6.89C10.70 8.76 11.89 10.61 14.41 10.61C16.65 10.61 17.89 8.69 17.89 6.80C17.89 4.93 16.70 3.08 14.18 3.08ZM24.26 5.75L24.96 5.61L24.96 3.75C24.25 3.30 23.51 3.09 22.74 3.09C20.83 3.09 19.01 4.47 19.01 6.86C19.01 9.28 20.62 10.65 22.53 10.65C23.48 10.65 24.40 10.29 25.14 9.58L24.84 9.04C24.26 9.48 23.42 9.73 22.79 9.73C21.15 9.73 20.41 8.26 20.41 6.76C20.41 5.12 21.38 3.86 22.78 3.86C23.10 3.86 23.46 3.95 23.87 4.10ZM28.20 7.99L29.30 6.90L31.60 10.50L33.40 10.50L33.54 9.83L32.55 9.65L30.23 6.01L31.88 4.38L33.22 3.88L33.22 3.46L30.14 3.46L30.00 4.13L30.90 4.27L28.20 7.01L28.20 0L25.73 0.34L25.80 0.91L26.94 1.12L26.94 9.66L25.70 10.08L25.70 10.50L29.11 10.50L29.25 9.83L28.20 9.63ZM40.26 6.75C40.26 5.00 39.76 3.11 37.27 3.11C35.66 3.11 33.89 4.35 33.89 6.83C33.89 9.25 35.46 10.63 37.31 10.63C38.25 10.63 39.24 10.28 40.15 9.56L39.84 9.03C39.13 9.49 38.44 9.72 37.79 9.72C36.37 9.72 35.29 8.60 35.29 6.75ZM35.34 5.99C35.38 4.62 36.34 3.86 37.23 3.86C38.07 3.86 38.86 4.52 38.86 5.99ZM46.96 3.32C46.66 3.19 46.35 3.12 46.03 3.12C45.21 3.12 44.49 3.60 43.86 4.27L43.86 3.12L41.38 3.46L41.45 4.07L42.62 4.30L42.62 9.66L41.40 10.08L41.40 10.50L45.01 10.50L45.15 9.83L43.86 9.63L43.86 4.96C44.24 4.52 44.97 4.24 45.57 4.24C45.64 4.24 45.78 4.24 45.85 4.26L46.23 5.32L46.96 5.19Z"></path></g><!----><g data-v-423bf9ae="" id="c421582d-ad4a-4e9d-8eae-604d83a1134c" transform="matrix(3.2142857142857144,0,0,3.2142857142857144,-15.285714285714292,-19.285714285714292)" stroke="none" fill="black"><path fill-rule="evenodd" clip-rule="evenodd" d="M34 10.9c.6-.2 1-.8 1-1.4 0-.8-.7-1.5-1.5-1.5S32 8.7 32 9.5c0 .7.4 1.2 1 1.4v5.3c-.1 0-.2-.1-.3-.1C31.3 10.3 26.2 6 20 6 13.8 6 8.7 10.3 7.3 16.1 6 16.4 5 17.6 5 19s1 2.6 2.3 2.9c.5 2 1.4 3.8 2.7 5.4V30s2 4 10 4 10-4 10-4v-2.7c1.3-1.5 2.2-3.4 2.7-5.4C34 21.6 35 20.4 35 19c0-.9-.4-1.7-1-2.2v-5.9zm-2.9 11c-.5 2-1.5 3.7-2.9 5.1-2.1 2.2-5 0-8.2 0-3.2 0-6.2 2.2-8.2 0-1.4-1.4-2.4-3.2-2.9-5.1-.3-1-.4-1.9-.4-2.9s.1-1.9.4-2.9c1.3-5 5.8-6.6 11.1-6.6 5.4 0 9.9 1.7 11.1 6.6.2.9.4 1.9.4 2.9s-.1 1.9-.4 2.9zM20 11.9c-4 0-7.3 1.3-8.3 5-.2.7-.3 1.4-.3 2.1 0 .7.1 1.4.3 2.1l.1.2c2-1.6 5.3-3.4 9.7-3.4-4.2 1.7-6.9 4.1-8.4 6 .3.4.5.7.8 1 .5.5 1.1.7 1.7.7 1.3 0 2.8-.7 4.4-.7 1.6 0 3.1.7 4.4.7.6 0 1.2-.2 1.7-.7 1-1.1 1.8-2.4 2.1-3.8.2-.7.3-1.4.3-2.1 0-.7-.1-1.4-.3-2.1-.9-3.8-4.2-5-8.2-5z"></path></g><!----></svg>