<svg data-v-423bf9ae="" xmlns="http://www.w3.org/2000/svg" viewBox="0 0 64.28571428571428 60" class="icon"><!----><!----><!----><!----><g data-v-423bf9ae="" id="9bc28b0d-f17d-478d-be15-52b322554067" transform="matrix(2.142857142857143,0,0,2.142857142857143,-10.714285305568147,-12.857142857142854)" stroke="none" fill="white"><path fill-rule="evenodd" clip-rule="evenodd" d="M34 10.9c.6-.2 1-.8 1-1.4 0-.8-.7-1.5-1.5-1.5S32 8.7 32 9.5c0 .7.4 1.2 1 1.4v5.3c-.1 0-.2-.1-.3-.1C31.3 10.3 26.2 6 20 6 13.8 6 8.7 10.3 7.3 16.1 6 16.4 5 17.6 5 19s1 2.6 2.3 2.9c.5 2 1.4 3.8 2.7 5.4V30s2 4 10 4 10-4 10-4v-2.7c1.3-1.5 2.2-3.4 2.7-5.4C34 21.6 35 20.4 35 19c0-.9-.4-1.7-1-2.2v-5.9zm-2.9 11c-.5 2-1.5 3.7-2.9 5.1-2.1 2.2-5 0-8.2 0-3.2 0-6.2 2.2-8.2 0-1.4-1.4-2.4-3.2-2.9-5.1-.3-1-.4-1.9-.4-2.9s.1-1.9.4-2.9c1.3-5 5.8-6.6 11.1-6.6 5.4 0 9.9 1.7 11.1 6.6.2.9.4 1.9.4 2.9s-.1 1.9-.4 2.9zM20 11.9c-4 0-7.3 1.3-8.3 5-.2.7-.3 1.4-.3 2.1 0 .7.1 1.4.3 2.1l.1.2c2-1.6 5.3-3.4 9.7-3.4-4.2 1.7-6.9 4.1-8.4 6 .3.4.5.7.8 1 .5.5 1.1.7 1.7.7 1.3 0 2.8-.7 4.4-.7 1.6 0 3.1.7 4.4.7.6 0 1.2-.2 1.7-.7 1-1.1 1.8-2.4 2.1-3.8.2-.7.3-1.4.3-2.1 0-.7-.1-1.4-.3-2.1-.9-3.8-4.2-5-8.2-5z"></path></g><!----></svg>